<svg width="14" height="12" viewBox="0 0 14 12" fill="none" xmlns="http://www.w3.org/2000/svg">
<path d="M1 5.25C0.585786 5.25 0.25 5.58579 0.25 6C0.25 6.41421 0.585786 6.75 1 6.75V5.25ZM13 6L13.5303 6.53033C13.8232 6.23744 13.8232 5.76256 13.5303 5.46967L13 6ZM8.28033 0.21967C7.98744 -0.0732234 7.51256 -0.0732234 7.21967 0.21967C6.92678 0.512563 6.92678 0.987437 7.21967 1.28033L8.28033 0.21967ZM7.21967 10.7197C6.92678 11.0126 6.92678 11.4874 7.21967 11.7803C7.51256 12.0732 7.98744 12.0732 8.28033 11.7803L7.21967 10.7197ZM1 6.75H13V5.25H1V6.75ZM7.21967 1.28033L12.4697 6.53033L13.5303 5.46967L8.28033 0.21967L7.21967 1.28033ZM12.4697 5.46967L7.21967 10.7197L8.28033 11.7803L13.5303 6.53033L12.4697 5.46967Z" fill="#00FFFF"/>
</svg>
