<svg width="52" height="47" viewBox="0 0 52 47" fill="none" xmlns="http://www.w3.org/2000/svg">
<path d="M16.6775 7.21234C17.26 6.41344 17.0846 5.29357 16.2857 4.71104C15.4868 4.12851 14.3669 4.30391 13.7844 5.10281L16.6775 7.21234ZM2.69922 23.3439L1.25269 22.2892C0.794402 22.9177 0.794402 23.7702 1.25269 24.3987L2.69922 23.3439ZM13.7844 41.5851C14.3669 42.384 15.4868 42.5594 16.2857 41.9768C17.0846 41.3943 17.26 40.2744 16.6775 39.4755L13.7844 41.5851ZM38.1604 5.10281C37.5779 4.30391 36.458 4.12851 35.6591 4.71104C34.8602 5.29357 34.6848 6.41344 35.2674 7.21234L38.1604 5.10281ZM49.2456 23.3439L50.6921 24.3987C51.1504 23.7702 51.1504 22.9177 50.6921 22.2892L49.2456 23.3439ZM35.2674 39.4755C34.6848 40.2744 34.8602 41.3943 35.6591 41.9768C36.458 42.5594 37.5779 42.384 38.1604 41.5851L35.2674 39.4755ZM31.3188 2.1553C31.4813 1.18003 30.8225 0.257643 29.8472 0.0950972C28.8719 -0.0674484 27.9496 0.591397 27.787 1.56667L31.3188 2.1553ZM20.626 44.5326C20.4635 45.5078 21.1223 46.4302 22.0976 46.5928C23.0729 46.7553 23.9953 46.0965 24.1578 45.1212L20.626 44.5326ZM13.7844 5.10281L1.25269 22.2892L4.14575 24.3987L16.6775 7.21234L13.7844 5.10281ZM1.25269 24.3987L13.7844 41.5851L16.6775 39.4755L4.14575 22.2892L1.25269 24.3987ZM35.2674 7.21234L47.7991 24.3987L50.6921 22.2892L38.1604 5.10281L35.2674 7.21234ZM47.7991 22.2892L35.2674 39.4755L38.1604 41.5851L50.6921 24.3987L47.7991 22.2892ZM27.787 1.56667L20.626 44.5326L24.1578 45.1212L31.3188 2.1553L27.787 1.56667Z" fill="#00FFFF"/>
</svg>
