<svg width="24" height="22" viewBox="0 0 24 22" fill="none" xmlns="http://www.w3.org/2000/svg">
<path d="M7.78177 3.67113C8.05126 3.30154 7.97011 2.78347 7.60053 2.51398C7.23095 2.24449 6.71288 2.32564 6.44339 2.69522L7.78177 3.67113ZM1.31519 11.1339L0.645994 10.6459C0.433984 10.9367 0.433984 11.3311 0.645994 11.6218L1.31519 11.1339ZM6.44339 19.5725C6.71288 19.9421 7.23095 20.0233 7.60053 19.7538C7.97011 19.4843 8.05126 18.9662 7.78177 18.5966L6.44339 19.5725ZM17.7202 2.69522C17.4507 2.32564 16.9326 2.24449 16.563 2.51398C16.1934 2.78347 16.1123 3.30154 16.3818 3.67113L17.7202 2.69522ZM22.8484 11.1339L23.5176 11.6218C23.7296 11.3311 23.7296 10.9367 23.5176 10.6459L22.8484 11.1339ZM16.3818 18.5966C16.1123 18.9662 16.1934 19.4843 16.563 19.7538C16.9326 20.0233 17.4507 19.9421 17.7202 19.5725L16.3818 18.5966ZM14.5551 1.33165C14.6303 0.880472 14.3255 0.453761 13.8743 0.378565C13.4231 0.303369 12.9964 0.608162 12.9212 1.05934L14.5551 1.33165ZM9.60844 20.9361C9.53325 21.3873 9.83804 21.814 10.2892 21.8892C10.7404 21.9644 11.1671 21.6596 11.2423 21.2084L9.60844 20.9361ZM6.44339 2.69522L0.645994 10.6459L1.98438 11.6218L7.78177 3.67113L6.44339 2.69522ZM0.645994 11.6218L6.44339 19.5725L7.78177 18.5966L1.98438 10.6459L0.645994 11.6218ZM16.3818 3.67113L22.1792 11.6218L23.5176 10.6459L17.7202 2.69522L16.3818 3.67113ZM22.1792 10.6459L16.3818 18.5966L17.7202 19.5725L23.5176 11.6218L22.1792 10.6459ZM12.9212 1.05934L9.60844 20.9361L11.2423 21.2084L14.5551 1.33165L12.9212 1.05934Z" fill="#8F00FF"/>
</svg>
