<svg width="60" height="56" viewBox="0 0 60 56" fill="none" xmlns="http://www.w3.org/2000/svg">
<path opacity="0.1" d="M19.5077 8.84204C20.1933 7.90181 19.9869 6.58383 19.0466 5.89825C18.1064 5.21267 16.7884 5.4191 16.1028 6.35933L19.5077 8.84204ZM3.05664 27.8274L1.35421 26.586C0.814853 27.3257 0.814853 28.329 1.35421 29.0687L3.05664 27.8274ZM16.1028 49.2954C16.7884 50.2357 18.1064 50.4421 19.0466 49.7565C19.9869 49.0709 20.1933 47.753 19.5077 46.8127L16.1028 49.2954ZM44.7911 6.35933C44.1055 5.4191 42.7875 5.21267 41.8473 5.89825C40.9071 6.58383 40.7006 7.90181 41.3862 8.84204L44.7911 6.35933ZM57.8373 27.8274L59.5397 29.0687C60.0791 28.329 60.0791 27.3257 59.5397 26.586L57.8373 27.8274ZM41.3862 46.8127C40.7006 47.753 40.9071 49.0709 41.8473 49.7565C42.7875 50.4421 44.1055 50.2357 44.7911 49.2954L41.3862 46.8127ZM36.7391 2.89039C36.9304 1.74258 36.155 0.657026 35.0072 0.465726C33.8594 0.274425 32.7739 1.04982 32.5826 2.19763L36.7391 2.89039ZM24.1548 52.7644C23.9635 53.9122 24.7389 54.9977 25.8867 55.189C27.0345 55.3803 28.12 54.6049 28.3113 53.4571L24.1548 52.7644ZM16.1028 6.35933L1.35421 26.586L4.75907 29.0687L19.5077 8.84204L16.1028 6.35933ZM1.35421 29.0687L16.1028 49.2954L19.5077 46.8127L4.75907 26.586L1.35421 29.0687ZM41.3862 8.84204L56.1348 29.0687L59.5397 26.586L44.7911 6.35933L41.3862 8.84204ZM56.1348 26.586L41.3862 46.8127L44.7911 49.2954L59.5397 29.0687L56.1348 26.586ZM32.5826 2.19763L24.1548 52.7644L28.3113 53.4571L36.7391 2.89039L32.5826 2.19763Z" fill="#8F00FF"/>
</svg>
