<svg width="24" height="22" viewBox="0 0 24 22" fill="none" xmlns="http://www.w3.org/2000/svg">
<path d="M7.46658 3.67119C7.73607 3.3016 7.65493 2.78353 7.28535 2.51404C6.91576 2.24456 6.39769 2.3257 6.1282 2.69528L7.46658 3.67119ZM1 11.1339L0.330809 10.646C0.118798 10.9368 0.118798 11.3311 0.330809 11.6219L1 11.1339ZM6.1282 19.5726C6.39769 19.9422 6.91576 20.0233 7.28535 19.7538C7.65493 19.4844 7.73607 18.9663 7.46658 18.5967L6.1282 19.5726ZM17.405 2.69528C17.1355 2.3257 16.6174 2.24456 16.2478 2.51404C15.8782 2.78353 15.7971 3.3016 16.0666 3.67119L17.405 2.69528ZM22.5332 11.1339L23.2024 11.6219C23.4144 11.3311 23.4144 10.9368 23.2024 10.646L22.5332 11.1339ZM16.0666 18.5967C15.7971 18.9663 15.8782 19.4844 16.2478 19.7538C16.6174 20.0233 17.1355 19.9422 17.405 19.5726L16.0666 18.5967ZM14.2399 1.33171C14.3151 0.880533 14.0103 0.453822 13.5591 0.378626C13.108 0.30343 12.6813 0.608223 12.6061 1.0594L14.2399 1.33171ZM9.29326 20.9362C9.21806 21.3874 9.52286 21.8141 9.97403 21.8893C10.4252 21.9645 10.8519 21.6597 10.9271 21.2085L9.29326 20.9362ZM6.1282 2.69528L0.330809 10.646L1.66919 11.6219L7.46658 3.67119L6.1282 2.69528ZM0.330809 11.6219L6.1282 19.5726L7.46658 18.5967L1.66919 10.646L0.330809 11.6219ZM16.0666 3.67119L21.864 11.6219L23.2024 10.646L17.405 2.69528L16.0666 3.67119ZM21.864 10.646L16.0666 18.5967L17.405 19.5726L23.2024 11.6219L21.864 10.646ZM12.6061 1.0594L9.29326 20.9362L10.9271 21.2085L14.2399 1.33171L12.6061 1.0594Z" fill="#8F00FF"/>
</svg>
