<svg width="25" height="23" viewBox="0 0 25 23" fill="none" xmlns="http://www.w3.org/2000/svg">
<path d="M24.1566 6.42775C23.8989 5.27652 23.3861 4.26264 22.6329 3.41418C21.9295 2.6222 21.0312 2.00745 20.0347 1.63675C17.9678 0.867294 15.6668 1.19922 13.8801 2.52435C13.5146 2.79536 13.1882 3.11991 12.8722 3.43374C12.7455 3.55965 12.6144 3.68961 12.4841 3.8133C12.4786 3.81884 12.473 3.82401 12.4679 3.82955C12.3859 3.7509 12.3065 3.67448 12.2286 3.59989C11.9561 3.33812 11.6991 3.09074 11.4411 2.84964C9.7936 1.30667 7.87993 0.713699 5.75359 1.08772C4.70648 1.27196 3.76091 1.66776 2.94271 2.26442C2.16551 2.83118 1.54042 3.54968 1.08517 4.39999C0.129626 6.18444 0.0602122 8.2997 0.895019 10.203C1.22326 10.9514 1.70324 11.6452 2.32206 12.2659C2.46199 12.4065 2.60525 12.5468 2.74371 12.6823C2.76734 12.7056 2.79097 12.7285 2.81423 12.7518C2.2759 13.464 2.18249 14.2327 2.54543 14.9837C2.90727 15.7328 3.54676 16.1619 4.4015 16.2331C4.4159 16.7814 4.62821 17.2692 5.03398 17.6853C5.43089 18.0922 5.91752 18.3159 6.48206 18.351C6.67664 19.6802 7.21681 20.234 8.53751 20.4585C8.57369 21.3487 9.03116 22.0181 9.86338 22.3962C10.1613 22.5317 10.46 22.5985 10.7525 22.5985C11.2576 22.5985 11.7434 22.3984 12.1717 22.0048C12.6687 21.5477 13.155 21.0596 13.6254 20.5873C13.7945 20.4175 13.9684 20.2429 14.143 20.0693C14.849 20.5888 15.6099 20.6641 16.3528 20.2846C17.1097 19.898 17.531 19.2486 17.5786 18.399C18.183 18.3739 18.666 18.1627 19.0503 17.7558C19.4561 17.3264 19.6725 16.8361 19.6953 16.2963C19.7341 16.2893 19.7729 16.2826 19.8109 16.2763C20.0048 16.2431 20.1879 16.2117 20.3692 16.1464C20.9175 15.9488 21.3502 15.5615 21.5883 15.0561C21.8254 14.5528 21.8538 13.9643 21.6685 13.3986C21.6349 13.296 21.6452 13.2749 21.7135 13.2125C21.9313 13.0132 22.1329 12.8057 22.3375 12.5926C24.0588 10.799 24.671 8.72504 24.1566 6.42775ZM15.4083 10.9175C15.1388 10.7244 14.7847 10.7591 14.5477 11.002C14.3106 11.2446 14.2863 11.5994 14.4879 11.8649C14.5377 11.9306 14.5931 11.9853 14.647 12.0381C14.6584 12.0491 14.6699 12.0606 14.681 12.072C15.0498 12.4412 15.419 12.8097 15.7883 13.1786C16.568 13.9576 17.3744 14.7633 18.1649 15.5582C18.3765 15.7712 18.4695 16.0434 18.4201 16.3051C18.3728 16.5555 18.1989 16.7637 17.9438 16.8759C17.6329 17.0126 17.3264 16.9531 17.0813 16.708C15.6121 15.2396 14.3874 14.0149 13.1144 12.7388C12.9582 12.5823 12.7381 12.4121 12.4202 12.487C12.1891 12.5417 12.006 12.7052 11.9306 12.9253C11.8557 13.1439 11.8996 13.3839 12.0477 13.567C12.0842 13.612 12.1226 13.6501 12.1599 13.6863C12.1695 13.6955 12.1791 13.7051 12.1884 13.7143C12.5808 14.1068 12.9733 14.4989 13.3658 14.8914C14.2593 15.7845 15.1831 16.708 16.0903 17.6181C16.2897 17.8178 16.3868 18.06 16.3642 18.3C16.3428 18.5271 16.2143 18.7316 16.002 18.8768C15.7314 19.0617 15.408 19.0643 15.1584 18.8841C15.0328 18.7933 14.9202 18.6788 14.801 18.5577C14.7751 18.5315 14.7493 18.5049 14.7231 18.4791C14.7219 18.4736 14.7212 18.4665 14.7208 18.4581C14.6946 17.2957 13.6291 16.4366 12.6624 16.4059C12.6458 15.8525 12.4317 15.3636 12.0248 14.9516C11.6187 14.5403 11.1339 14.3187 10.5808 14.2914C10.4264 13.0091 9.85156 12.4195 8.52606 12.1795C8.52274 12.0835 8.51868 11.9845 8.49837 11.883C8.32595 11.0249 7.80387 10.429 6.98826 10.1602C6.20847 9.90322 5.45674 10.0882 4.81466 10.6956C4.56027 10.9363 4.30957 11.1903 4.06736 11.4362C3.99647 11.5082 3.92558 11.5802 3.85395 11.6526L3.72251 11.5274C3.48916 11.3052 3.25581 11.0832 3.0232 10.8599C2.12452 9.99626 1.68515 8.90928 1.68035 7.53615C1.67075 4.90287 3.54491 2.72078 6.13647 2.34787C7.68313 2.12523 9.07177 2.51623 10.264 3.5098C10.6011 3.79078 10.9131 4.0928 11.2435 4.41255C11.3495 4.51519 11.4577 4.62005 11.5677 4.72491C11.5636 4.72897 11.5596 4.73303 11.5555 4.73709C11.2941 4.9985 11.0323 5.25954 10.7706 5.52021C10.2178 6.07108 9.64628 6.64079 9.08876 7.20607C8.1993 8.1077 8.03279 9.42767 8.68335 10.4161C9.17626 11.1645 9.89587 11.6175 10.71 11.691C11.4983 11.7622 12.2688 11.4706 12.8238 10.8901C13.3802 10.3083 13.9636 9.73116 14.5277 9.17327C14.7729 8.93106 15.0262 8.68036 15.2743 8.43225C15.8078 8.96577 16.3413 9.4993 16.8745 10.0328C17.9715 11.1301 19.1061 12.2648 20.2233 13.3794C20.5065 13.6619 20.5726 13.9706 20.4316 14.3512C20.3326 14.6185 20.1266 14.8046 19.867 14.8615C19.6086 14.918 19.3453 14.836 19.1448 14.6359C18.4282 13.9203 17.7119 13.2041 16.996 12.4878C16.533 12.0248 16.07 11.5618 15.607 11.0988L15.58 11.0714C15.5309 11.022 15.4748 10.9655 15.4083 10.9175ZM3.95142 13.5053C4.30846 13.1435 4.6751 12.778 5.02918 12.425C5.25625 12.1987 5.48295 11.9723 5.70928 11.7453C5.87322 11.5806 6.05413 11.509 6.31259 11.5056C6.61867 11.5256 6.86125 11.7024 6.99638 12.0045C7.13373 12.3113 7.07798 12.5971 6.83134 12.8537C6.56661 13.1291 6.2897 13.4038 6.02201 13.6693C5.90645 13.7837 5.79125 13.8982 5.67605 14.0134C5.61476 14.0747 5.55421 14.136 5.49329 14.1973C5.35372 14.3379 5.20973 14.4834 5.06536 14.6226C4.71866 14.9567 4.266 14.9641 3.93924 14.6407C3.60362 14.3091 3.60879 13.8528 3.95142 13.5053ZM6.29856 16.873C5.98952 16.729 5.83076 16.4927 5.81303 16.1515C5.81008 15.9389 5.88355 15.7602 6.03752 15.6051L6.17265 15.4688C6.7191 14.9176 7.28401 14.3479 7.84818 13.797C8.15721 13.495 8.61283 13.4994 8.9311 13.8074C9.25601 14.1219 9.27558 14.5761 8.97688 14.8866C8.39721 15.4895 7.77212 16.1146 7.11823 16.7445C6.88414 16.9697 6.60058 17.014 6.29856 16.873ZM8.11734 17.7082L8.44927 17.3744C8.92778 16.8929 9.4229 16.3952 9.91581 15.913C10.2245 15.611 10.6801 15.6158 10.9987 15.9248C11.3188 16.235 11.3369 16.6899 11.0419 17.007C10.803 17.264 10.5475 17.5162 10.3005 17.7599C10.1986 17.8603 10.0967 17.9611 9.99556 18.0623C9.92172 18.1361 9.84861 18.2103 9.77551 18.2845C9.59016 18.4728 9.39816 18.6674 9.20248 18.848C8.95214 19.0787 8.67523 19.1286 8.37875 18.996C8.08226 18.8635 7.90134 18.6308 7.8814 18.3576C7.87956 18.0671 7.94787 17.8784 8.11734 17.7082ZM10.1953 19.8157C10.9001 19.1027 11.4462 18.5563 11.9668 18.0445C12.2888 17.7277 12.74 17.7252 13.0638 18.0383C13.2259 18.1952 13.3171 18.3938 13.3204 18.5976C13.3237 18.7985 13.2443 18.9879 13.0911 19.1455C12.5975 19.654 12.0846 20.162 11.5891 20.6531L11.296 20.9436C11.1564 21.0821 10.9773 21.1404 10.6974 21.1393C10.3685 21.1201 10.137 20.9647 10.0103 20.6774C9.87926 20.3813 9.94682 20.0671 10.1953 19.8157ZM15.8518 7.1577C15.6461 6.95204 15.46 6.8494 15.2739 6.8494C15.089 6.8494 14.9043 6.95094 14.7013 7.15401L13.8546 8.001C13.193 8.66301 12.5314 9.32465 11.869 9.98593C11.5001 10.354 11.0774 10.4777 10.6129 10.3537C10.1466 10.2292 9.83089 9.91134 9.69981 9.43431C9.56911 8.95876 9.68062 8.55372 10.041 8.19669C10.6114 7.63104 11.1878 7.05247 11.7449 6.4931C12.524 5.71109 13.3292 4.9025 14.1305 4.11754C15.6092 2.66909 17.3423 2.23636 19.2822 2.83192C21.2328 3.43042 22.47 4.80355 22.8607 6.80251C23.2148 8.61575 22.7281 10.2189 21.4144 11.5669C21.2623 11.7227 21.1069 11.8793 20.9418 12.0451C20.9075 12.0798 20.8724 12.1149 20.8366 12.151C20.8204 12.1311 20.803 12.1119 20.7842 12.0931C19.2874 10.594 17.7894 9.09611 16.2915 7.59818L15.8518 7.1577Z" fill="#8F00FF"/>
</svg>
