<svg width="53" height="48" viewBox="0 0 53 48" fill="none" xmlns="http://www.w3.org/2000/svg">
<path d="M52.452 12.4773C51.8949 9.98875 50.7863 7.79713 49.1582 5.96307C47.6378 4.25112 45.696 2.92227 43.5419 2.12096C39.0741 0.4577 34.1002 1.1752 30.2382 4.03962C29.448 4.62544 28.7425 5.32698 28.0593 6.00537C27.7856 6.27753 27.5022 6.55846 27.2205 6.82583C27.2085 6.8378 27.1966 6.84898 27.1854 6.86095C27.0082 6.69095 26.8366 6.52574 26.6682 6.36452C26.0792 5.79866 25.5237 5.26393 24.9658 4.74276C21.4047 1.40745 17.2681 0.125686 12.6717 0.934173C10.4083 1.33243 8.36433 2.18801 6.59572 3.47775C4.91569 4.70285 3.56449 6.25598 2.58042 8.09403C0.514907 11.9513 0.364862 16.5237 2.16939 20.6379C2.87891 22.2557 3.91646 23.7554 5.25409 25.097C5.55658 25.4011 5.86624 25.7044 6.16553 25.9973C6.21661 26.0475 6.26769 26.097 6.31797 26.1473C5.15433 27.6869 4.95241 29.3485 5.73695 30.9719C6.5191 32.5913 7.90143 33.5187 9.74905 33.6727C9.78018 34.8579 10.2391 35.9122 11.1162 36.8117C11.9742 37.6912 13.0261 38.1748 14.2464 38.2507C14.667 41.1239 15.8347 42.321 18.6895 42.8063C18.7677 44.7305 19.7566 46.1775 21.5555 46.9948C22.1996 47.2877 22.8453 47.4321 23.4774 47.4321C24.5692 47.4321 25.6195 46.9996 26.5453 46.1488C27.6196 45.1607 28.6707 44.1056 29.6875 43.0848C30.053 42.7177 30.4289 42.3402 30.8064 41.9651C32.3324 43.088 33.9773 43.2508 35.5831 42.4304C37.2192 41.5948 38.1299 40.1909 38.2328 38.3544C39.5394 38.3001 40.5833 37.8436 41.4141 36.9641C42.2912 36.0359 42.7589 34.976 42.8084 33.8092C42.8922 33.794 42.976 33.7796 43.0582 33.7661C43.4772 33.6942 43.8731 33.6264 44.265 33.4851C45.4502 33.0582 46.3856 32.2209 46.9003 31.1283C47.4127 30.0405 47.4742 28.7683 47.0735 27.5456C47.0009 27.3237 47.0232 27.2782 47.1709 27.1433C47.6418 26.7124 48.0775 26.2638 48.5197 25.8033C52.2405 21.9261 53.5638 17.4431 52.452 12.4773ZM33.5415 22.1823C32.9589 21.7649 32.1935 21.8399 31.6812 22.3651C31.1688 22.8894 31.1161 23.6564 31.5519 24.2302C31.6596 24.3723 31.7793 24.4904 31.8958 24.6046C31.9206 24.6285 31.9453 24.6532 31.9693 24.678C32.7666 25.4761 33.5647 26.2726 34.3628 27.0699C36.0484 28.7539 37.7915 30.4954 39.5002 32.2138C39.9576 32.6743 40.1587 33.2625 40.0517 33.8283C39.9496 34.3694 39.5737 34.8196 39.0222 35.0622C38.3502 35.3575 37.6877 35.229 37.1578 34.6991C33.9821 31.525 31.3348 28.8776 28.5829 26.1194C28.2453 25.781 27.7696 25.413 27.0824 25.5751C26.5828 25.6932 26.187 26.0467 26.0241 26.5224C25.8621 26.9949 25.9571 27.5137 26.2771 27.9095C26.3562 28.0069 26.4392 28.0891 26.5198 28.1673C26.5405 28.1873 26.5613 28.208 26.5812 28.228C27.4296 29.0764 28.278 29.924 29.1264 30.7724C31.0578 32.703 33.0547 34.6991 35.0157 36.6664C35.4466 37.0982 35.6565 37.6218 35.6079 38.1405C35.5616 38.6314 35.2838 39.0735 34.8249 39.3872C34.2399 39.787 33.5407 39.7926 33.0012 39.4031C32.7299 39.2068 32.4864 38.9594 32.2287 38.6976C32.1728 38.6409 32.1169 38.5835 32.0603 38.5276C32.0579 38.5156 32.0563 38.5005 32.0555 38.4821C31.9988 35.9697 29.6955 34.1125 27.606 34.0462C27.5701 32.8498 27.1072 31.7931 26.2277 30.9025C25.3497 30.0134 24.3018 29.5345 23.1062 29.4754C22.7726 26.7036 21.53 25.429 18.6648 24.9102C18.6576 24.7027 18.6488 24.4888 18.6049 24.2694C18.2322 22.4145 17.1036 21.1264 15.3406 20.5454C13.655 19.9899 12.0301 20.3897 10.6421 21.7026C10.0922 22.223 9.55032 22.7721 9.02676 23.3036C8.87353 23.4593 8.72029 23.6149 8.56546 23.7713L8.28133 23.5008C7.77692 23.0203 7.27251 22.5406 6.7697 22.0578C4.8271 20.191 3.87735 17.8414 3.86697 14.8732C3.84622 9.18106 7.89744 4.46422 13.4994 3.65813C16.8427 3.17687 19.8444 4.02207 22.4215 6.16978C23.1501 6.77715 23.8245 7.43 24.5389 8.12116C24.7679 8.34304 25.0018 8.5697 25.2396 8.79637C25.2308 8.80515 25.222 8.81393 25.2133 8.82271C24.6482 9.38777 24.0823 9.95203 23.5165 10.5155C22.3217 11.7063 21.0862 12.9378 19.8811 14.1597C17.9584 16.1087 17.5985 18.9619 19.0047 21.0985C20.0702 22.7162 21.6257 23.6955 23.3856 23.8543C25.0896 24.0084 26.7552 23.3779 27.9548 22.1232C29.1575 20.8654 30.4185 19.618 31.6381 18.412C32.168 17.8885 32.7155 17.3465 33.2518 16.8102C34.4051 17.9635 35.5584 19.1167 36.7108 20.27C39.082 22.642 41.5346 25.0946 43.9497 27.5041C44.5619 28.1147 44.7047 28.7819 44.3999 29.6047C44.186 30.1826 43.7406 30.5848 43.1795 30.7077C42.6209 30.8298 42.0518 30.6526 41.6184 30.2201C40.0693 28.6733 38.521 27.125 36.9734 25.5767C35.9726 24.5758 34.9718 23.575 33.9709 22.5742L33.9127 22.5151C33.8065 22.4082 33.6852 22.286 33.5415 22.1823ZM8.77616 27.7763C9.54793 26.9941 10.3405 26.204 11.1058 25.441C11.5967 24.9517 12.0867 24.4625 12.576 23.9717C12.9303 23.6157 13.3214 23.4609 13.8801 23.4537C14.5417 23.4968 15.0661 23.8791 15.3582 24.5319C15.6551 25.1952 15.5346 25.8129 15.0014 26.3676C14.4292 26.963 13.8306 27.5568 13.252 28.1306C13.0022 28.378 12.7531 28.6254 12.5041 28.8745C12.3716 29.0069 12.2408 29.1394 12.1091 29.2719C11.8074 29.576 11.4961 29.8904 11.1841 30.1913C10.4346 30.9136 9.45615 30.9296 8.74982 30.2304C8.02434 29.5137 8.03551 28.5273 8.77616 27.7763ZM13.8497 35.0558C13.1817 34.7446 12.8385 34.2338 12.8002 33.4963C12.7938 33.0366 12.9527 32.6503 13.2855 32.3151L13.5776 32.0206C14.7588 30.829 15.9799 29.5975 17.1994 28.4068C17.8674 27.7539 18.8523 27.7635 19.5403 28.4291C20.2426 29.1091 20.2849 30.0908 19.6392 30.762C18.3862 32.0653 17.035 33.4165 15.6216 34.7781C15.1156 35.2649 14.5026 35.3607 13.8497 35.0558ZM17.7812 36.8612L18.4987 36.1397C19.5331 35.0989 20.6034 34.0231 21.6688 32.9807C22.3361 32.3279 23.3209 32.3383 24.0097 33.0063C24.7017 33.6767 24.7408 34.66 24.1031 35.3455C23.5867 35.901 23.0344 36.4461 22.5005 36.9729C22.2802 37.19 22.0599 37.4079 21.8412 37.6265C21.6816 37.7862 21.5236 37.9466 21.3656 38.107C20.9649 38.514 20.5499 38.9346 20.1269 39.3249C19.5858 39.8237 18.9872 39.9315 18.3463 39.645C17.7054 39.3584 17.3144 38.8556 17.2713 38.265C17.2673 37.6369 17.4149 37.2291 17.7812 36.8612ZM22.273 41.4168C23.7966 39.8756 24.977 38.6944 26.1024 37.5882C26.7983 36.9035 27.7736 36.8979 28.4735 37.5747C28.8239 37.9139 29.021 38.3432 29.0282 38.7838C29.0354 39.218 28.8638 39.6274 28.5326 39.9682C27.4655 41.0672 26.357 42.1654 25.2859 43.2269L24.6522 43.855C24.3505 44.1543 23.9634 44.2804 23.3584 44.278C22.6473 44.2365 22.1469 43.9005 21.8732 43.2796C21.5898 42.6395 21.7359 41.9603 22.273 41.4168ZM34.5001 14.0551C34.0555 13.6106 33.6533 13.3887 33.251 13.3887C32.8512 13.3887 32.4521 13.6082 32.0132 14.0471L30.1831 15.878C28.7529 17.309 27.3227 18.7392 25.8909 20.1687C25.0935 20.9644 24.1797 21.2317 23.1757 20.9636C22.1677 20.6946 21.4853 20.0074 21.202 18.9763C20.9194 17.9483 21.1604 17.0728 21.9394 16.301C23.1725 15.0783 24.4183 13.8277 25.6227 12.6185C27.3067 10.9281 29.0474 9.18026 30.7793 7.48347C33.9757 4.35248 37.7221 3.4171 41.9153 4.70445C46.1318 5.99819 48.8062 8.96637 49.6506 13.2873C50.416 17.2069 49.3641 20.6723 46.5244 23.5862C46.1956 23.923 45.8596 24.2614 45.5028 24.6197C45.4286 24.6947 45.3528 24.7706 45.2754 24.8488C45.2403 24.8057 45.2028 24.7642 45.162 24.7235C41.9265 21.4831 38.6886 18.2452 35.4506 15.0073L34.5001 14.0551Z" fill="#00FFFF"/>
</svg>
