<svg width="62" height="55" viewBox="0 0 62 55" fill="none" xmlns="http://www.w3.org/2000/svg">
<path opacity="0.1" d="M60.6529 13.8614C59.9973 10.9327 58.6926 8.35338 56.7764 6.19487C54.9871 4.18007 52.7017 2.61614 50.1666 1.67308C44.9084 -0.284424 39.0546 0.560008 34.5094 3.93116C33.5795 4.6206 32.7491 5.44625 31.9451 6.24465C31.6229 6.56496 31.2894 6.89559 30.9579 7.21026C30.9438 7.22434 30.9297 7.23749 30.9165 7.25158C30.708 7.05151 30.5061 6.85708 30.3079 6.66734C29.6147 6.00138 28.9609 5.37204 28.3043 4.75868C24.1132 0.833344 19.2448 -0.675173 13.8354 0.276339C11.1715 0.74505 8.76595 1.75198 6.68446 3.26989C4.70724 4.71172 3.117 6.53959 1.95884 8.7028C-0.472066 13.2424 -0.648655 18.6237 1.4751 23.4658C2.31014 25.3698 3.53123 27.1347 5.1055 28.7137C5.46149 29.0715 5.82594 29.4285 6.17818 29.7732C6.2383 29.8324 6.29841 29.8906 6.35759 29.9498C4.98809 31.7617 4.75044 33.7173 5.67378 35.6278C6.59429 37.5337 8.22116 38.6252 10.3956 38.8064C10.4323 40.2013 10.9724 41.4421 12.0047 42.5007C13.0144 43.5358 14.2524 44.105 15.6886 44.1943C16.1836 47.5758 17.5578 48.9847 20.9177 49.5558C21.0097 51.8205 22.1735 53.5234 24.2907 54.4852C25.0487 54.83 25.8086 55 26.5525 55C27.8375 55 29.0736 54.4909 30.1632 53.4896C31.4275 52.3267 32.6646 51.085 33.8612 49.8836C34.2914 49.4515 34.7339 49.0072 35.1781 48.5658C36.9741 49.8874 38.91 50.079 40.7999 49.1134C42.7254 48.1299 43.7972 46.4777 43.9183 44.3164C45.456 44.2525 46.6846 43.7152 47.6624 42.6801C48.6947 41.5877 49.2451 40.3403 49.3033 38.9671C49.402 38.9492 49.5006 38.9323 49.5973 38.9163C50.0905 38.8318 50.5564 38.752 51.0176 38.5857C52.4124 38.0832 53.5133 37.0979 54.1191 35.812C54.7222 34.5317 54.7945 33.0344 54.323 31.5954C54.2375 31.3343 54.2638 31.2808 54.4376 31.122C54.9917 30.6148 55.5046 30.0869 56.025 29.5449C60.404 24.9818 61.9614 19.7058 60.6529 13.8614ZM38.3971 25.2833C37.7114 24.7921 36.8106 24.8804 36.2076 25.4984C35.6046 26.1156 35.5426 27.0182 36.0555 27.6936C36.1823 27.8608 36.3232 27.9998 36.4603 28.1341C36.4894 28.1623 36.5185 28.1914 36.5467 28.2205C37.4851 29.1598 38.4244 30.0972 39.3637 31.0356C41.3475 33.0175 43.3989 35.0671 45.4099 37.0894C45.9482 37.6314 46.1849 38.3236 46.059 38.9896C45.9388 39.6265 45.4964 40.1562 44.8473 40.4418C44.0564 40.7893 43.2768 40.6381 42.6531 40.0144C38.9156 36.2788 35.8 33.1631 32.5613 29.9169C32.1639 29.5186 31.6041 29.0856 30.7954 29.2763C30.2074 29.4153 29.7415 29.8314 29.5499 30.3913C29.3592 30.9473 29.471 31.5579 29.8476 32.0238C29.9406 32.1384 30.0383 32.2351 30.1332 32.3271C30.1576 32.3506 30.182 32.3751 30.2055 32.3985C31.204 33.397 32.2024 34.3946 33.2009 35.393C35.474 37.6652 37.8242 40.0144 40.132 42.3298C40.6392 42.8379 40.8863 43.4541 40.829 44.0646C40.7745 44.6423 40.4476 45.1627 39.9075 45.5318C39.219 46.0024 38.3962 46.009 37.7612 45.5506C37.4419 45.3196 37.1554 45.0284 36.852 44.7203C36.7862 44.6536 36.7205 44.586 36.6538 44.5202C36.651 44.5061 36.6491 44.4883 36.6482 44.4667C36.5815 41.5098 33.8706 39.324 31.4116 39.246C31.3693 37.838 30.8245 36.5944 29.7894 35.5461C28.7561 34.4998 27.5228 33.9362 26.1158 33.8667C25.7231 30.6045 24.2607 29.1044 20.8886 28.4939C20.8801 28.2496 20.8698 27.9979 20.8181 27.7396C20.3795 25.5567 19.0513 24.0406 16.9764 23.3568C14.9926 22.7031 13.0802 23.1737 11.4467 24.7188C10.7995 25.3312 10.1618 25.9775 9.54557 26.6031C9.36523 26.7862 9.18488 26.9694 9.00266 27.1535L8.66827 26.8351C8.07463 26.2696 7.48099 25.7051 6.88923 25.1368C4.60297 22.9398 3.48521 20.1745 3.473 16.6812C3.44857 9.98213 8.21646 4.43086 14.8094 3.48217C18.7441 2.91577 22.2768 3.91049 25.3099 6.43815C26.1674 7.15296 26.9611 7.92131 27.8018 8.73474C28.0714 8.99586 28.3466 9.26263 28.6265 9.52939C28.6162 9.53972 28.6059 9.55005 28.5955 9.56038C27.9305 10.2254 27.2645 10.8895 26.5986 11.5526C25.1924 12.9541 23.7384 14.4034 22.3201 15.8415C20.0573 18.1353 19.6337 21.4933 21.2887 24.0078C22.5427 25.9117 24.3734 27.0642 26.4445 27.2512C28.4499 27.4325 30.4103 26.6904 31.822 25.2138C33.2375 23.7335 34.7216 22.2654 36.1569 20.8461C36.7806 20.2299 37.4249 19.5921 38.0562 18.9609C39.4134 20.3182 40.7707 21.6755 42.1271 23.0328C44.9178 25.8244 47.8042 28.7108 50.6465 31.5466C51.367 32.2652 51.5351 33.0504 51.1763 34.0188C50.9246 34.6989 50.4004 35.1723 49.7401 35.3169C49.0826 35.4607 48.4129 35.2521 47.9028 34.743C46.0797 32.9227 44.2574 31.1004 42.4361 29.2782C41.2582 28.1003 40.0804 26.9224 38.9025 25.7445L38.8339 25.675C38.709 25.5492 38.5662 25.4054 38.3971 25.2833ZM9.25063 31.8669C10.1589 30.9464 11.0917 30.0165 11.9925 29.1185C12.5701 28.5427 13.1469 27.9669 13.7226 27.3892C14.1397 26.9703 14.5999 26.7881 15.2575 26.7796C16.0361 26.8304 16.6533 27.2803 16.997 28.0486C17.3465 28.8292 17.2046 29.5562 16.5772 30.209C15.9037 30.9097 15.1992 31.6086 14.5182 32.2839C14.2242 32.5751 13.9312 32.8663 13.6381 33.1594C13.4822 33.3153 13.3281 33.4712 13.1732 33.6271C12.8181 33.985 12.4518 34.3551 12.0845 34.7092C11.2025 35.5593 10.0509 35.5781 9.21964 34.7552C8.36581 33.9118 8.37896 32.7508 9.25063 31.8669ZM15.2218 40.4343C14.4356 40.0679 14.0317 39.4668 13.9866 38.5989C13.9791 38.0578 14.166 37.6032 14.5577 37.2087L14.9015 36.8621C16.2916 35.4597 17.7288 34.0104 19.164 32.6089C19.9502 31.8406 21.1093 31.8519 21.919 32.6352C22.7456 33.4355 22.7953 34.5909 22.0355 35.3808C20.5608 36.9147 18.9705 38.5049 17.307 40.1074C16.7115 40.6803 15.9901 40.7931 15.2218 40.4343ZM19.8488 42.5589L20.6932 41.7098C21.9105 40.485 23.1701 39.2188 24.4241 37.9921C25.2093 37.2237 26.3684 37.2359 27.1791 38.0221C27.9934 38.8111 28.0395 39.9684 27.289 40.7752C26.6812 41.429 26.0312 42.0705 25.4028 42.6905C25.1436 42.9459 24.8843 43.2024 24.627 43.4597C24.4391 43.6476 24.2531 43.8364 24.0672 44.0252C23.5956 44.5042 23.1072 44.9993 22.6094 45.4586C21.9725 46.0456 21.268 46.1724 20.5138 45.8352C19.7595 45.498 19.2993 44.9063 19.2485 44.2112C19.2439 43.472 19.4176 42.992 19.8488 42.5589ZM25.1351 47.9205C26.9283 46.1067 28.3175 44.7165 29.6419 43.4147C30.461 42.6087 31.6088 42.6022 32.4326 43.3987C32.8449 43.7979 33.0769 44.3032 33.0854 44.8217C33.0938 45.3327 32.8919 45.8146 32.5021 46.2156C31.2462 47.5091 29.9415 48.8015 28.681 50.0508L27.9352 50.79C27.5801 51.1423 27.1246 51.2907 26.4126 51.2879C25.5757 51.239 24.9867 50.8436 24.6646 50.1128C24.3311 49.3595 24.503 48.5601 25.1351 47.9205ZM39.5252 15.7184C39.002 15.1952 38.5286 14.9341 38.0552 14.9341C37.5846 14.9341 37.115 15.1924 36.5984 15.709L34.4445 17.8638C32.7613 19.548 31.0781 21.2312 29.393 22.9135C28.4546 23.85 27.3791 24.1646 26.1975 23.849C25.0112 23.5325 24.2081 22.7237 23.8746 21.5102C23.5421 20.3003 23.8258 19.2699 24.7425 18.3616C26.1937 16.9226 27.66 15.4507 29.0774 14.0277C31.0593 12.0383 33.1079 9.98119 35.1462 7.98424C38.9081 4.29936 43.3172 3.1985 48.2523 4.71359C53.2146 6.2362 56.3622 9.72946 57.356 14.8148C58.2568 19.4277 57.0188 23.5062 53.6767 26.9356C53.2897 27.332 52.8943 27.7302 52.4744 28.152C52.3871 28.2403 52.2978 28.3295 52.2067 28.4215C52.1654 28.3708 52.1212 28.322 52.0733 28.2741C48.2654 24.4605 44.4547 20.6498 40.6439 16.839L39.5252 15.7184Z" fill="#8F00FF"/>
</svg>
