<svg width="25" height="23" viewBox="0 0 25 23" fill="none" xmlns="http://www.w3.org/2000/svg">
<path d="M23.8414 5.92766C23.5837 4.77643 23.0709 3.76255 22.3177 2.91408C21.6143 2.12211 20.716 1.50735 19.7195 1.13666C17.6526 0.367203 15.3516 0.699132 13.5649 2.02426C13.1994 2.29527 12.873 2.61982 12.557 2.93365C12.4303 3.05956 12.2993 3.18952 12.1689 3.31321C12.1634 3.31875 12.1578 3.32392 12.1527 3.32946C12.0707 3.25081 11.9913 3.17438 11.9134 3.0998C11.6409 2.83802 11.384 2.59065 11.1259 2.34955C9.47841 0.806575 7.56474 0.213607 5.4384 0.587627C4.39129 0.771868 3.44572 1.16767 2.62753 1.76433C1.85032 2.33109 1.22523 3.04959 0.769982 3.8999C-0.18556 5.68434 -0.254973 7.79961 0.579834 9.70294C0.908071 10.4513 1.38806 11.1451 2.00687 11.7658C2.1468 11.9064 2.29006 12.0467 2.42852 12.1823C2.45215 12.2055 2.47578 12.2284 2.49904 12.2517C1.96072 12.9639 1.8673 13.7326 2.23025 14.4836C2.59208 15.2327 3.23157 15.6618 4.08632 15.733C4.10072 16.2813 4.31302 16.7691 4.71879 17.1852C5.1157 17.5921 5.60234 17.8158 6.16687 17.8509C6.36145 19.1801 6.90162 19.7339 8.22232 19.9584C8.25851 20.8486 8.71597 21.518 9.54819 21.8961C9.84615 22.0316 10.1449 22.0984 10.4373 22.0984C10.9424 22.0984 11.4283 21.8983 11.8566 21.5047C12.3535 21.0476 12.8398 20.5595 13.3102 20.0873C13.4793 19.9174 13.6532 19.7428 13.8278 19.5692C14.5338 20.0887 15.2947 20.1641 16.0376 19.7845C16.7945 19.3979 17.2158 18.7485 17.2634 17.8989C17.8678 17.8738 18.3508 17.6626 18.7351 17.2557C19.1409 16.8263 19.3573 16.336 19.3802 15.7962C19.4189 15.7892 19.4577 15.7825 19.4957 15.7762C19.6896 15.743 19.8727 15.7116 20.054 15.6463C20.6023 15.4487 21.035 15.0614 21.2732 14.556C21.5102 14.0527 21.5386 13.4642 21.3533 12.8985C21.3197 12.7959 21.33 12.7748 21.3983 12.7125C21.6162 12.5131 21.8178 12.3056 22.0223 12.0925C23.7436 10.2989 24.3558 8.22495 23.8414 5.92766ZM15.0931 10.4174C14.8236 10.2243 14.4695 10.259 14.2325 10.5019C13.9955 10.7445 13.9711 11.0993 14.1727 11.3648C14.2225 11.4305 14.2779 11.4852 14.3318 11.538C14.3433 11.549 14.3547 11.5605 14.3658 11.5719C14.7346 11.9411 15.1039 12.3096 15.4731 12.6785C16.2529 13.4575 17.0592 14.2632 17.8497 15.0581C18.0613 15.2711 18.1543 15.5433 18.1049 15.805C18.0576 16.0554 17.8837 16.2636 17.6286 16.3759C17.3177 16.5125 17.0112 16.453 16.7661 16.2079C15.297 14.7395 14.0722 13.5148 12.7992 12.2387C12.643 12.0822 12.4229 11.912 12.105 11.9869C11.8739 12.0416 11.6908 12.2051 11.6155 12.4252C11.5405 12.6438 11.5844 12.8838 11.7325 13.0669C11.7691 13.1119 11.8075 13.15 11.8447 13.1862C11.8543 13.1954 11.8639 13.205 11.8732 13.2142C12.2657 13.6067 12.6581 13.9988 13.0506 14.3913C13.9441 15.2844 14.8679 16.2079 15.7751 17.118C15.9745 17.3177 16.0716 17.5599 16.0491 17.7999C16.0276 18.027 15.8992 18.2316 15.6868 18.3767C15.4162 18.5616 15.0928 18.5642 14.8432 18.384C14.7176 18.2932 14.605 18.1788 14.4858 18.0577C14.4599 18.0314 14.4341 18.0049 14.4079 17.979C14.4068 17.9735 14.406 17.9665 14.4057 17.958C14.3794 16.7957 13.3139 15.9365 12.3473 15.9058C12.3306 15.3524 12.1165 14.8635 11.7096 14.4515C11.3035 14.0402 10.8187 13.8186 10.2656 13.7913C10.1113 12.509 9.53638 11.9194 8.21088 11.6794C8.20755 11.5834 8.20349 11.4844 8.18319 11.3829C8.01076 10.5248 7.48868 9.9289 6.67308 9.66011C5.89328 9.40313 5.14155 9.58811 4.49948 10.1955C4.24508 10.4362 3.99438 10.6902 3.75217 10.9361C3.68128 11.0081 3.61039 11.0801 3.53876 11.1525L3.40732 11.0273C3.17398 10.8051 2.94063 10.5832 2.70802 10.3598C1.80934 9.49617 1.36997 8.40919 1.36517 7.03606C1.35557 4.40278 3.22973 2.22069 5.82128 1.84778C7.36795 1.62514 8.75659 2.01614 9.9488 3.00971C10.2859 3.29069 10.5979 3.59271 10.9283 3.91246C11.0343 4.0151 11.1425 4.11996 11.2525 4.22482C11.2485 4.22888 11.2444 4.23294 11.2403 4.237C10.9789 4.49841 10.7171 4.75945 10.4554 5.02012C9.90264 5.57099 9.33109 6.1407 8.77357 6.70598C7.88412 7.60761 7.7176 8.92757 8.36817 9.91598C8.86107 10.6644 9.58069 11.1174 10.3948 11.1909C11.1831 11.2622 11.9537 10.9705 12.5086 10.3901C13.065 9.80816 13.6484 9.23107 14.2126 8.67318C14.4577 8.43097 14.711 8.18027 14.9591 7.93216C15.4926 8.46568 16.0262 8.9992 16.5593 9.53273C17.6563 10.63 18.7909 11.7647 19.9081 12.8793C20.1913 13.1618 20.2574 13.4705 20.1164 13.8511C20.0174 14.1184 19.8114 14.3045 19.5518 14.3614C19.2934 14.4179 19.0301 14.3359 18.8297 14.1358C18.113 13.4202 17.3967 12.704 16.6808 11.9877C16.2178 11.5247 15.7548 11.0617 15.2918 10.5987L15.2648 10.5713C15.2157 10.5219 15.1596 10.4654 15.0931 10.4174ZM3.63624 13.0052C3.99327 12.6434 4.35991 12.2779 4.71399 11.9249C4.94106 11.6986 5.16777 11.4722 5.3941 11.2452C5.55803 11.0805 5.73895 11.0089 5.9974 11.0055C6.30349 11.0255 6.54606 11.2023 6.6812 11.5044C6.81855 11.8112 6.7628 12.097 6.51616 12.3536C6.25143 12.629 5.97451 12.9037 5.70683 13.1692C5.59126 13.2836 5.47606 13.3981 5.36087 13.5133C5.29958 13.5746 5.23902 13.6359 5.1781 13.6972C5.03854 13.8378 4.89454 13.9833 4.75018 14.1225C4.40348 14.4566 3.95081 14.464 3.62405 14.1406C3.28843 13.809 3.2936 13.3527 3.63624 13.0052ZM5.98337 16.3729C5.67434 16.2289 5.51557 15.9926 5.49785 15.6514C5.49489 15.4388 5.56837 15.2601 5.72233 15.105L5.85747 14.9688C6.40391 14.4175 6.96882 13.8478 7.53299 13.2969C7.84203 12.9949 8.29764 12.9993 8.61591 13.3073C8.94083 13.6218 8.9604 14.076 8.6617 14.3865C8.08202 14.9894 7.45693 15.6145 6.80304 16.2444C6.56896 16.4696 6.28539 16.5139 5.98337 16.3729ZM7.80215 17.2081L8.13408 16.8743C8.61259 16.3928 9.10771 15.8951 9.60062 15.4129C9.90929 15.1109 10.3649 15.1157 10.6835 15.4247C11.0037 15.7349 11.0218 16.1898 10.7267 16.5069C10.4879 16.7639 10.2324 17.0161 9.98535 17.2598C9.88345 17.3602 9.78154 17.461 9.68037 17.5622C9.60653 17.636 9.53343 17.7102 9.46032 17.7844C9.27497 17.9727 9.08298 18.1673 8.88729 18.3479C8.63696 18.5786 8.36004 18.6285 8.06356 18.4959C7.76708 18.3634 7.58616 18.1308 7.56622 17.8575C7.56437 17.567 7.63268 17.3783 7.80215 17.2081ZM9.88012 19.3156C10.585 18.6026 11.131 18.0562 11.6516 17.5444C11.9736 17.2276 12.4248 17.2251 12.7486 17.5382C12.9107 17.6951 13.0019 17.8937 13.0052 18.0975C13.0085 18.2984 12.9291 18.4878 12.7759 18.6455C12.2823 19.1539 11.7694 19.6619 11.2739 20.153L10.9808 20.4436C10.8412 20.582 10.6621 20.6403 10.3823 20.6392C10.0533 20.62 9.82179 20.4646 9.69514 20.1773C9.56407 19.8812 9.63164 19.567 9.88012 19.3156ZM15.5366 6.65761C15.3309 6.45195 15.1448 6.34931 14.9587 6.34931C14.7738 6.34931 14.5892 6.45085 14.3861 6.65392L13.5395 7.50091C12.8778 8.16292 12.2162 8.82456 11.5538 9.48584C11.1849 9.85395 10.7622 9.97764 10.2977 9.85358C9.83139 9.72915 9.5157 9.41125 9.38463 8.93422C9.25393 8.45866 9.36543 8.05363 9.72579 7.69659C10.2962 7.13095 10.8726 6.55238 11.4297 5.99301C12.2088 5.211 13.0141 4.40241 13.8153 3.61745C15.294 2.169 17.0271 1.73627 18.967 2.33182C20.9176 2.93033 22.1549 4.30346 22.5455 6.30242C22.8996 8.11566 22.4129 9.71881 21.0993 11.0668C20.9471 11.2226 20.7917 11.3792 20.6266 11.545C20.5923 11.5797 20.5572 11.6148 20.5214 11.6509C20.5052 11.631 20.4878 11.6118 20.469 11.593C18.9722 10.0939 17.4742 8.59601 15.9763 7.09809L15.5366 6.65761Z" fill="#8F00FF"/>
</svg>
