<svg width="59" height="59" viewBox="0 0 59 59" fill="none" xmlns="http://www.w3.org/2000/svg">
<path d="M17 54.712C17 55.5404 17.6716 56.212 18.5 56.212C19.3284 56.212 20 55.5404 20 54.712H17ZM18.5 35L17.1976 34.2558C17.0681 34.4824 17 34.739 17 35H18.5ZM29.5 15.75L30.8024 15.0058C30.5353 14.5384 30.0383 14.25 29.5 14.25C28.9617 14.25 28.4647 14.5384 28.1976 15.0058L29.5 15.75ZM40.5 35H42C42 34.739 41.9319 34.4824 41.8024 34.2558L40.5 35ZM39 54.712C39 55.5404 39.6716 56.212 40.5 56.212C41.3284 56.212 42 55.5404 42 54.712H39ZM29.5 35L30.4956 33.878C29.9275 33.374 29.0725 33.374 28.5044 33.878L29.5 35ZM29.5 0.5C13.4833 0.5 0.5 13.4833 0.5 29.5H3.5C3.5 15.1402 15.1402 3.5 29.5 3.5V0.5ZM0.5 29.5C0.5 45.5167 13.4833 58.5 29.5 58.5V55.5C15.1402 55.5 3.5 43.8598 3.5 29.5H0.5ZM29.5 58.5C45.5167 58.5 58.5 45.5167 58.5 29.5H55.5C55.5 43.8598 43.8598 55.5 29.5 55.5V58.5ZM58.5 29.5C58.5 13.4833 45.5167 0.5 29.5 0.5V3.5C43.8598 3.5 55.5 15.1402 55.5 29.5H58.5ZM20 54.712V35H17V54.712H20ZM19.8024 35.7442L30.8024 16.4942L28.1976 15.0058L17.1976 34.2558L19.8024 35.7442ZM28.1976 16.4942L39.1976 35.7442L41.8024 34.2558L30.8024 15.0058L28.1976 16.4942ZM39 35V54.712H42V35H39ZM18.5 35C17.5044 36.122 17.5047 36.1222 17.5049 36.1224C17.505 36.1225 17.5052 36.1227 17.5054 36.1229C17.5058 36.1232 17.5062 36.1236 17.5067 36.124C17.5077 36.1248 17.5088 36.1258 17.5101 36.127C17.5128 36.1293 17.5162 36.1324 17.5203 36.136C17.5286 36.1433 17.5399 36.1531 17.5541 36.1654C17.5824 36.1898 17.6222 36.2239 17.6725 36.2663C17.7732 36.3509 17.9165 36.4688 18.0949 36.6091C18.4503 36.8883 18.953 37.2622 19.5415 37.6386C20.6408 38.3417 22.3341 39.25 24 39.25V36.25C23.2652 36.25 22.2084 35.7833 21.1579 35.1114C20.6716 34.8003 20.2494 34.4867 19.9486 34.2503C19.799 34.1327 19.6814 34.0359 19.6032 33.9701C19.5641 33.9372 19.535 33.9122 19.5167 33.8964C19.5076 33.8885 19.5012 33.8829 19.4976 33.8798C19.4958 33.8782 19.4947 33.8773 19.4944 33.877C19.4942 33.8768 19.4942 33.8768 19.4944 33.877C19.4945 33.8771 19.4947 33.8772 19.4949 33.8774C19.4949 33.8775 19.4951 33.8776 19.4952 33.8777C19.4954 33.8778 19.4956 33.878 18.5 35ZM24 39.25C25.6659 39.25 27.3592 38.3417 28.4585 37.6386C29.047 37.2622 29.5497 36.8883 29.9051 36.6091C30.0835 36.4688 30.2268 36.3509 30.3275 36.2663C30.3778 36.2239 30.4176 36.1898 30.4459 36.1654C30.4601 36.1531 30.4714 36.1433 30.4797 36.136C30.4838 36.1324 30.4872 36.1293 30.4899 36.127C30.4912 36.1258 30.4923 36.1248 30.4933 36.124C30.4938 36.1236 30.4942 36.1232 30.4946 36.1229C30.4948 36.1227 30.495 36.1225 30.4951 36.1224C30.4953 36.1222 30.4956 36.122 29.5 35C28.5044 33.878 28.5046 33.8778 28.5048 33.8777C28.5049 33.8776 28.5051 33.8775 28.5051 33.8774C28.5053 33.8772 28.5055 33.8771 28.5056 33.877C28.5058 33.8768 28.5058 33.8768 28.5056 33.877C28.5053 33.8773 28.5042 33.8782 28.5024 33.8798C28.4988 33.8829 28.4924 33.8885 28.4833 33.8964C28.465 33.9122 28.4359 33.9372 28.3968 33.9701C28.3186 34.0359 28.201 34.1327 28.0514 34.2503C27.7506 34.4867 27.3284 34.8003 26.8421 35.1114C25.7916 35.7833 24.7348 36.25 24 36.25V39.25ZM29.5 35C28.5044 36.122 28.5047 36.1222 28.5049 36.1224C28.505 36.1225 28.5052 36.1227 28.5054 36.1229C28.5058 36.1232 28.5062 36.1236 28.5067 36.124C28.5077 36.1248 28.5088 36.1258 28.5101 36.127C28.5128 36.1293 28.5162 36.1324 28.5203 36.136C28.5286 36.1433 28.5399 36.1531 28.5541 36.1654C28.5824 36.1898 28.6222 36.2239 28.6725 36.2663C28.7732 36.3509 28.9165 36.4688 29.0949 36.6091C29.4503 36.8883 29.953 37.2622 30.5415 37.6386C31.6408 38.3417 33.3341 39.25 35 39.25V36.25C34.2652 36.25 33.2084 35.7833 32.1579 35.1114C31.6716 34.8003 31.2494 34.4867 30.9486 34.2503C30.799 34.1327 30.6814 34.0359 30.6032 33.9701C30.5641 33.9372 30.535 33.9122 30.5167 33.8964C30.5076 33.8885 30.5012 33.8829 30.4976 33.8798C30.4958 33.8782 30.4947 33.8773 30.4944 33.877C30.4942 33.8768 30.4942 33.8768 30.4944 33.877C30.4945 33.8771 30.4947 33.8772 30.4949 33.8774C30.4949 33.8775 30.4951 33.8776 30.4952 33.8777C30.4954 33.8778 30.4956 33.878 29.5 35ZM35 39.25C36.6659 39.25 38.3592 38.3417 39.4585 37.6386C40.047 37.2622 40.5497 36.8883 40.9051 36.6091C41.0835 36.4688 41.2268 36.3509 41.3275 36.2663C41.3778 36.2239 41.4176 36.1898 41.4459 36.1654C41.4601 36.1531 41.4714 36.1433 41.4797 36.136C41.4838 36.1324 41.4872 36.1293 41.4899 36.127C41.4912 36.1258 41.4923 36.1248 41.4933 36.124C41.4938 36.1236 41.4942 36.1232 41.4946 36.1229C41.4948 36.1227 41.495 36.1225 41.4951 36.1224C41.4953 36.1222 41.4956 36.122 40.5 35C39.5044 33.878 39.5046 33.8778 39.5048 33.8777C39.5049 33.8776 39.5051 33.8775 39.5051 33.8774C39.5053 33.8772 39.5055 33.8771 39.5056 33.877C39.5058 33.8768 39.5058 33.8768 39.5056 33.877C39.5053 33.8773 39.5042 33.8782 39.5024 33.8798C39.4988 33.8829 39.4924 33.8885 39.4833 33.8964C39.465 33.9122 39.4359 33.9372 39.3968 33.9701C39.3186 34.0359 39.201 34.1327 39.0514 34.2503C38.7506 34.4867 38.3284 34.8003 37.8421 35.1114C36.7916 35.7833 35.7348 36.25 35 36.25V39.25Z" fill="#8F00FF"/>
</svg>
