<svg width="23" height="23" viewBox="0 0 23 23" fill="none" xmlns="http://www.w3.org/2000/svg">
<path d="M6.32072 20.6251C6.32072 21.054 6.66834 21.4016 7.09716 21.4016C7.52597 21.4016 7.8736 21.054 7.8736 20.6251H6.32072ZM7.09716 13.2045L6.42302 12.8193C6.35598 12.9366 6.32072 13.0694 6.32072 13.2045H7.09716ZM11.2382 5.95774L11.9123 5.57252C11.7741 5.3306 11.5168 5.1813 11.2382 5.1813C10.9595 5.1813 10.7023 5.3306 10.564 5.57252L11.2382 5.95774ZM15.3792 13.2045H16.1556C16.1556 13.0694 16.1203 12.9366 16.0533 12.8193L15.3792 13.2045ZM14.6027 20.6251C14.6027 21.054 14.9503 21.4016 15.3792 21.4016C15.808 21.4016 16.1556 21.054 16.1556 20.6251H14.6027ZM11.2382 13.2045L11.7535 12.6237C11.4595 12.3628 11.0169 12.3628 10.7228 12.6237L11.2382 13.2045ZM11.2382 0.00505751C5.09166 0.00505751 0.109229 4.98749 0.109229 11.134H1.6621C1.6621 5.84512 5.94929 1.55793 11.2382 1.55793V0.00505751ZM0.109229 11.134C0.109229 17.2805 5.09166 22.2629 11.2382 22.2629V20.71C5.94929 20.71 1.6621 16.4228 1.6621 11.134H0.109229ZM11.2382 22.2629C17.3846 22.2629 22.3671 17.2805 22.3671 11.134H20.8142C20.8142 16.4228 16.527 20.71 11.2382 20.71V22.2629ZM22.3671 11.134C22.3671 4.98749 17.3846 0.00505751 11.2382 0.00505751V1.55793C16.527 1.55793 20.8142 5.84512 20.8142 11.134H22.3671ZM7.8736 20.6251V13.2045H6.32072V20.6251H7.8736ZM7.7713 13.5897L11.9123 6.34296L10.564 5.57252L6.42302 12.8193L7.7713 13.5897ZM10.564 6.34296L14.705 13.5897L16.0533 12.8193L11.9123 5.57252L10.564 6.34296ZM14.6027 13.2045V20.6251H16.1556V13.2045H14.6027ZM7.09716 13.2045C6.58183 13.7853 6.58195 13.7854 6.58207 13.7855C6.58211 13.7855 6.58223 13.7856 6.58233 13.7857C6.58251 13.7858 6.58271 13.786 6.58293 13.7862C6.58336 13.7866 6.58387 13.7871 6.58445 13.7876C6.58561 13.7886 6.58706 13.7899 6.5888 13.7914C6.59226 13.7944 6.59685 13.7984 6.60254 13.8033C6.6139 13.8132 6.62963 13.8266 6.64938 13.8433C6.68884 13.8764 6.74461 13.9223 6.81383 13.9767C6.95145 14.0849 7.14638 14.2299 7.37514 14.3762C7.79242 14.6431 8.4748 15.0162 9.16766 15.0162V13.4633C8.95674 13.4633 8.60387 13.3188 8.21184 13.068C8.03596 12.9555 7.88272 12.8417 7.77333 12.7558C7.71905 12.7131 7.67661 12.6781 7.64873 12.6547C7.63481 12.643 7.6246 12.6342 7.61843 12.6289C7.61534 12.6262 7.61328 12.6244 7.61227 12.6235C7.61177 12.6231 7.61153 12.6229 7.61156 12.6229C7.61158 12.6229 7.61167 12.623 7.61182 12.6231C7.61189 12.6232 7.61199 12.6233 7.6121 12.6234C7.61215 12.6234 7.61225 12.6235 7.61228 12.6235C7.61238 12.6236 7.61248 12.6237 7.09716 13.2045ZM9.16766 15.0162C9.86051 15.0162 10.5429 14.6431 10.9602 14.3762C11.1889 14.2299 11.3839 14.0849 11.5215 13.9767C11.5907 13.9223 11.6465 13.8764 11.6859 13.8433C11.7057 13.8266 11.7214 13.8132 11.7328 13.8033C11.7385 13.7984 11.7431 13.7944 11.7465 13.7914C11.7482 13.7899 11.7497 13.7886 11.7509 13.7876C11.7514 13.7871 11.752 13.7866 11.7524 13.7862C11.7526 13.786 11.7528 13.7858 11.753 13.7857C11.7531 13.7856 11.7532 13.7855 11.7532 13.7855C11.7534 13.7854 11.7535 13.7853 11.2382 13.2045C10.7228 12.6237 10.7229 12.6236 10.723 12.6235C10.7231 12.6235 10.7232 12.6234 10.7232 12.6234C10.7233 12.6233 10.7234 12.6232 10.7235 12.6231C10.7236 12.623 10.7237 12.6229 10.7238 12.6229C10.7238 12.6229 10.7235 12.6231 10.723 12.6235C10.722 12.6244 10.72 12.6262 10.7169 12.6289C10.7107 12.6342 10.7005 12.643 10.6866 12.6547C10.6587 12.6781 10.6163 12.7131 10.562 12.7558C10.4526 12.8417 10.2994 12.9555 10.1235 13.068C9.73144 13.3188 9.37857 13.4633 9.16766 13.4633V15.0162ZM11.2382 13.2045C10.7228 13.7853 10.7229 13.7854 10.7231 13.7855C10.7231 13.7855 10.7232 13.7856 10.7233 13.7857C10.7235 13.7858 10.7237 13.786 10.7239 13.7862C10.7244 13.7866 10.7249 13.7871 10.7254 13.7876C10.7266 13.7886 10.7281 13.7899 10.7298 13.7914C10.7333 13.7944 10.7379 13.7984 10.7435 13.8033C10.7549 13.8132 10.7706 13.8266 10.7904 13.8433C10.8298 13.8764 10.8856 13.9223 10.9548 13.9767C11.0924 14.0849 11.2874 14.2299 11.5161 14.3762C11.9334 14.6431 12.6158 15.0162 13.3087 15.0162V13.4633C13.0977 13.4633 12.7449 13.3188 12.3528 13.068C12.177 12.9555 12.0237 12.8417 11.9143 12.7558C11.86 12.7131 11.8176 12.6781 11.7897 12.6547C11.7758 12.643 11.7656 12.6342 11.7594 12.6289C11.7563 12.6262 11.7543 12.6244 11.7533 12.6235C11.7528 12.6231 11.7525 12.6229 11.7526 12.6229C11.7526 12.6229 11.7527 12.623 11.7528 12.6231C11.7529 12.6232 11.753 12.6233 11.7531 12.6234C11.7531 12.6234 11.7532 12.6235 11.7533 12.6235C11.7534 12.6236 11.7535 12.6237 11.2382 13.2045ZM13.3087 15.0162C14.0015 15.0162 14.6839 14.6431 15.1012 14.3762C15.3299 14.2299 15.5249 14.0849 15.6625 13.9767C15.7317 13.9223 15.7875 13.8764 15.8269 13.8433C15.8467 13.8266 15.8624 13.8132 15.8738 13.8033C15.8795 13.7984 15.884 13.7944 15.8875 13.7914C15.8892 13.7899 15.8907 13.7886 15.8919 13.7876C15.8924 13.7871 15.8929 13.7866 15.8934 13.7862C15.8936 13.786 15.8938 13.7858 15.894 13.7857C15.8941 13.7856 15.8942 13.7855 15.8942 13.7855C15.8944 13.7854 15.8945 13.7853 15.3792 13.2045C14.8638 12.6237 14.8639 12.6236 14.864 12.6235C14.8641 12.6235 14.8642 12.6234 14.8642 12.6234C14.8643 12.6233 14.8644 12.6232 14.8645 12.6231C14.8646 12.623 14.8647 12.6229 14.8647 12.6229C14.8648 12.6229 14.8645 12.6231 14.864 12.6235C14.863 12.6244 14.861 12.6262 14.8579 12.6289C14.8517 12.6342 14.8415 12.643 14.8276 12.6547C14.7997 12.6781 14.7573 12.7131 14.703 12.7558C14.5936 12.8417 14.4404 12.9555 14.2645 13.068C13.8724 13.3188 13.5196 13.4633 13.3087 13.4633V15.0162Z" fill="#8F00FF"/>
</svg>
