<svg width="50" height="50" viewBox="0 0 50 50" fill="none" xmlns="http://www.w3.org/2000/svg">
<path d="M14.4445 46.4881C14.4445 47.192 15.0151 47.7626 15.7191 47.7626C16.423 47.7626 16.9936 47.192 16.9936 46.4881H14.4445ZM15.7191 29.739L14.6124 29.1067C14.5024 29.2993 14.4445 29.5172 14.4445 29.739H15.7191ZM25.0656 13.3826L26.1722 12.7502C25.9453 12.3531 25.523 12.108 25.0656 12.108C24.6082 12.108 24.1859 12.3531 23.959 12.7502L25.0656 13.3826ZM34.4122 29.739H35.6867C35.6867 29.5172 35.6288 29.2993 35.5188 29.1067L34.4122 29.739ZM33.1376 46.4881C33.1376 47.192 33.7083 47.7626 34.4122 47.7626C35.1161 47.7626 35.6867 47.192 35.6867 46.4881H33.1376ZM25.0656 29.739L25.9115 28.7857C25.4289 28.3574 24.7023 28.3574 24.2197 28.7857L25.0656 29.739ZM25.0656 0.424841C11.4564 0.424841 0.424688 11.4566 0.424688 25.0658H2.97375C2.97375 12.8644 12.8643 2.9739 25.0656 2.9739V0.424841ZM0.424688 25.0658C0.424688 38.6749 11.4564 49.7067 25.0656 49.7067V47.1576C12.8643 47.1576 2.97375 37.2671 2.97375 25.0658H0.424688ZM25.0656 49.7067C38.6748 49.7067 49.7065 38.6749 49.7065 25.0658H47.1575C47.1575 37.2671 37.267 47.1576 25.0656 47.1576V49.7067ZM49.7065 25.0658C49.7065 11.4566 38.6748 0.424841 25.0656 0.424841V2.9739C37.267 2.9739 47.1575 12.8644 47.1575 25.0658H49.7065ZM16.9936 46.4881V29.739H14.4445V46.4881H16.9936ZM16.8257 30.3714L26.1722 14.0149L23.959 12.7502L14.6124 29.1067L16.8257 30.3714ZM23.959 14.0149L33.3056 30.3714L35.5188 29.1067L26.1722 12.7502L23.959 14.0149ZM33.1376 29.739V46.4881H35.6867V29.739H33.1376ZM15.7191 29.739C14.8731 30.6924 14.8733 30.6925 14.8735 30.6927C14.8736 30.6928 14.8738 30.693 14.874 30.6931C14.8743 30.6934 14.8747 30.6937 14.8751 30.6941C14.8759 30.6948 14.8768 30.6956 14.878 30.6966C14.8802 30.6986 14.8831 30.7012 14.8866 30.7043C14.8937 30.7105 14.9033 30.7188 14.9153 30.7292C14.9394 30.75 14.9732 30.779 15.016 30.815C15.1015 30.8869 15.2232 30.9871 15.3749 31.1063C15.6768 31.3435 16.1039 31.6612 16.604 31.9811C17.5381 32.5785 18.9768 33.3502 20.3923 33.3502V30.8011C19.7679 30.8011 18.8701 30.4046 17.9775 29.8337C17.5642 29.5693 17.2055 29.3029 16.9499 29.102C16.8228 29.0021 16.7229 28.9198 16.6564 28.8639C16.6232 28.836 16.5984 28.8148 16.5829 28.8013C16.5752 28.7946 16.5697 28.7899 16.5667 28.7872C16.5652 28.7859 16.5643 28.7851 16.564 28.7848C16.5638 28.7847 16.5638 28.7847 16.564 28.7848C16.5641 28.7849 16.5642 28.785 16.5644 28.7852C16.5644 28.7852 16.5646 28.7854 16.5646 28.7854C16.5648 28.7855 16.565 28.7857 15.7191 29.739ZM20.3923 33.3502C21.8078 33.3502 23.2466 32.5785 24.1807 31.9811C24.6807 31.6612 25.1079 31.3435 25.4098 31.1063C25.5614 30.9871 25.6832 30.8869 25.7687 30.815C25.8115 30.779 25.8453 30.75 25.8693 30.7292C25.8814 30.7188 25.891 30.7105 25.898 30.7043C25.9015 30.7012 25.9044 30.6986 25.9067 30.6966C25.9078 30.6956 25.9088 30.6948 25.9096 30.6941C25.91 30.6937 25.9104 30.6934 25.9107 30.6931C25.9108 30.693 25.9111 30.6928 25.9111 30.6927C25.9113 30.6925 25.9115 30.6924 25.0656 29.739C24.2197 28.7857 24.2199 28.7855 24.22 28.7854C24.2201 28.7854 24.2202 28.7852 24.2203 28.7852C24.2205 28.785 24.2206 28.7849 24.2207 28.7848C24.2208 28.7847 24.2208 28.7847 24.2207 28.7848C24.2204 28.7851 24.2195 28.7859 24.218 28.7872C24.2149 28.7899 24.2095 28.7946 24.2017 28.8013C24.1862 28.8148 24.1615 28.836 24.1283 28.8639C24.0618 28.9198 23.9619 29.0021 23.8347 29.102C23.5792 29.3029 23.2205 29.5693 22.8072 29.8337C21.9146 30.4046 21.0167 30.8011 20.3923 30.8011V33.3502ZM25.0656 29.739C24.2197 30.6924 24.2199 30.6925 24.2201 30.6927C24.2202 30.6928 24.2204 30.693 24.2205 30.6931C24.2209 30.6934 24.2212 30.6937 24.2216 30.6941C24.2224 30.6948 24.2234 30.6956 24.2245 30.6966C24.2268 30.6986 24.2297 30.7012 24.2332 30.7043C24.2403 30.7105 24.2499 30.7188 24.2619 30.7292C24.2859 30.75 24.3197 30.779 24.3625 30.815C24.448 30.8869 24.5698 30.9871 24.7214 31.1063C25.0234 31.3435 25.4505 31.6612 25.9506 31.9811C26.8846 32.5785 28.3234 33.3502 29.7389 33.3502V30.8011C29.1145 30.8011 28.2166 30.4046 27.324 29.8337C26.9108 29.5693 26.552 29.3029 26.2965 29.102C26.1694 29.0021 26.0695 28.9198 26.003 28.8639C25.9698 28.836 25.945 28.8148 25.9295 28.8013C25.9217 28.7946 25.9163 28.7899 25.9132 28.7872C25.9117 28.7859 25.9108 28.7851 25.9105 28.7848C25.9104 28.7847 25.9104 28.7847 25.9106 28.7848C25.9106 28.7849 25.9108 28.785 25.9109 28.7852C25.911 28.7852 25.9111 28.7854 25.9112 28.7854C25.9114 28.7855 25.9115 28.7857 25.0656 29.739ZM29.7389 33.3502C31.1544 33.3502 32.5932 32.5785 33.5272 31.9811C34.0273 31.6612 34.4544 31.3435 34.7563 31.1063C34.908 30.9871 35.0298 30.8869 35.1152 30.815C35.158 30.779 35.1918 30.75 35.2159 30.7292C35.2279 30.7188 35.2375 30.7105 35.2446 30.7043C35.2481 30.7012 35.251 30.6986 35.2533 30.6966C35.2544 30.6956 35.2553 30.6948 35.2562 30.6941C35.2566 30.6937 35.2569 30.6934 35.2572 30.6931C35.2574 30.693 35.2576 30.6928 35.2577 30.6927C35.2579 30.6925 35.2581 30.6924 34.4122 29.739C33.5663 28.7857 33.5664 28.7855 33.5666 28.7854C33.5666 28.7854 33.5668 28.7852 33.5668 28.7852C33.567 28.785 33.5671 28.7849 33.5672 28.7848C33.5674 28.7847 33.5674 28.7847 33.5672 28.7848C33.5669 28.7851 33.566 28.7859 33.5645 28.7872C33.5615 28.7899 33.5561 28.7946 33.5483 28.8013C33.5328 28.8148 33.508 28.836 33.4748 28.8639C33.4083 28.9198 33.3084 29.0021 33.1813 29.102C32.9257 29.3029 32.567 29.5693 32.1538 29.8337C31.2611 30.4046 30.3633 30.8011 29.7389 30.8011V33.3502Z" fill="#00FFFF"/>
</svg>
