<svg width="23" height="23" viewBox="0 0 23 23" fill="none" xmlns="http://www.w3.org/2000/svg">
<path d="M6.32074 20.8436C6.32074 21.2725 6.66836 21.6201 7.09717 21.6201C7.52599 21.6201 7.87361 21.2725 7.87361 20.8436H6.32074ZM7.09717 13.423L6.42304 13.0378C6.356 13.1551 6.32074 13.2879 6.32074 13.423H7.09717ZM11.2382 6.17624L11.9123 5.79102C11.7741 5.54911 11.5168 5.39981 11.2382 5.39981C10.9595 5.39981 10.7023 5.54911 10.564 5.79102L11.2382 6.17624ZM15.3792 13.423H16.1556C16.1556 13.2879 16.1203 13.1551 16.0533 13.0378L15.3792 13.423ZM14.6027 20.8436C14.6027 21.2725 14.9504 21.6201 15.3792 21.6201C15.808 21.6201 16.1556 21.2725 16.1556 20.8436H14.6027ZM11.2382 13.423L11.7535 12.8422C11.4595 12.5813 11.0169 12.5813 10.7228 12.8422L11.2382 13.423ZM11.2382 0.223563C5.09168 0.223563 0.109245 5.206 0.109245 11.3525H1.66212C1.66212 6.06362 5.94931 1.77644 11.2382 1.77644V0.223563ZM0.109245 11.3525C0.109245 17.499 5.09168 22.4814 11.2382 22.4814V20.9285C5.94931 20.9285 1.66212 16.6414 1.66212 11.3525H0.109245ZM11.2382 22.4814C17.3847 22.4814 22.3671 17.499 22.3671 11.3525H20.8142C20.8142 16.6414 16.527 20.9285 11.2382 20.9285V22.4814ZM22.3671 11.3525C22.3671 5.206 17.3847 0.223563 11.2382 0.223563V1.77644C16.527 1.77644 20.8142 6.06362 20.8142 11.3525H22.3671ZM7.87361 20.8436V13.423H6.32074V20.8436H7.87361ZM7.77131 13.8082L11.9123 6.56146L10.564 5.79102L6.42304 13.0378L7.77131 13.8082ZM10.564 6.56146L14.705 13.8082L16.0533 13.0378L11.9123 5.79102L10.564 6.56146ZM14.6027 13.423V20.8436H16.1556V13.423H14.6027ZM7.09717 13.423C6.58185 14.0038 6.58196 14.0039 6.58208 14.004C6.58213 14.004 6.58225 14.0041 6.58234 14.0042C6.58252 14.0044 6.58272 14.0045 6.58294 14.0047C6.58338 14.0051 6.58389 14.0056 6.58447 14.0061C6.58563 14.0071 6.58708 14.0084 6.58881 14.0099C6.59227 14.0129 6.59687 14.0169 6.60255 14.0218C6.61391 14.0317 6.62965 14.0452 6.6494 14.0618C6.68885 14.0949 6.74462 14.1408 6.81384 14.1952C6.95146 14.3034 7.14639 14.4484 7.37516 14.5947C7.79244 14.8616 8.47482 15.2347 9.16767 15.2347V13.6818C8.95676 13.6818 8.60389 13.5373 8.21186 13.2865C8.03597 13.174 7.88273 13.0602 7.77335 12.9743C7.71907 12.9316 7.67663 12.8966 7.64875 12.8732C7.63483 12.8615 7.62461 12.8527 7.61844 12.8474C7.61536 12.8447 7.61329 12.8429 7.61229 12.842C7.61178 12.8416 7.61155 12.8414 7.61158 12.8414C7.6116 12.8414 7.61168 12.8415 7.61183 12.8416C7.61191 12.8417 7.612 12.8418 7.61211 12.8419C7.61217 12.8419 7.61227 12.842 7.61229 12.842C7.61239 12.8421 7.6125 12.8422 7.09717 13.423ZM9.16767 15.2347C9.86053 15.2347 10.5429 14.8616 10.9602 14.5947C11.189 14.4484 11.3839 14.3034 11.5215 14.1952C11.5907 14.1408 11.6465 14.0949 11.6859 14.0618C11.7057 14.0452 11.7214 14.0317 11.7328 14.0218C11.7385 14.0169 11.7431 14.0129 11.7465 14.0099C11.7483 14.0084 11.7497 14.0071 11.7509 14.0061C11.7515 14.0056 11.752 14.0051 11.7524 14.0047C11.7526 14.0045 11.7528 14.0044 11.753 14.0042C11.7531 14.0041 11.7532 14.004 11.7533 14.004C11.7534 14.0039 11.7535 14.0038 11.2382 13.423C10.7228 12.8422 10.7229 12.8421 10.7231 12.842C10.7231 12.842 10.7232 12.8419 10.7232 12.8419C10.7233 12.8418 10.7234 12.8417 10.7235 12.8416C10.7237 12.8415 10.7237 12.8414 10.7238 12.8414C10.7238 12.8414 10.7236 12.8416 10.7231 12.842C10.7221 12.8429 10.72 12.8447 10.7169 12.8474C10.7107 12.8527 10.7005 12.8615 10.6866 12.8732C10.6587 12.8966 10.6163 12.9316 10.562 12.9743C10.4526 13.0602 10.2994 13.174 10.1235 13.2865C9.73146 13.5373 9.37859 13.6818 9.16767 13.6818V15.2347ZM11.2382 13.423C10.7228 14.0038 10.723 14.0039 10.7231 14.004C10.7231 14.004 10.7232 14.0041 10.7233 14.0042C10.7235 14.0044 10.7237 14.0045 10.7239 14.0047C10.7244 14.0051 10.7249 14.0056 10.7255 14.0061C10.7266 14.0071 10.7281 14.0084 10.7298 14.0099C10.7333 14.0129 10.7379 14.0169 10.7435 14.0218C10.7549 14.0317 10.7706 14.0452 10.7904 14.0618C10.8298 14.0949 10.8856 14.1408 10.9548 14.1952C11.0925 14.3034 11.2874 14.4484 11.5162 14.5947C11.9334 14.8616 12.6158 15.2347 13.3087 15.2347V13.6818C13.0978 13.6818 12.7449 13.5373 12.3529 13.2865C12.177 13.174 12.0237 13.0602 11.9143 12.9743C11.8601 12.9316 11.8176 12.8966 11.7897 12.8732C11.7758 12.8615 11.7656 12.8527 11.7594 12.8474C11.7564 12.8447 11.7543 12.8429 11.7533 12.842C11.7528 12.8416 11.7525 12.8414 11.7526 12.8414C11.7526 12.8414 11.7527 12.8415 11.7528 12.8416C11.7529 12.8417 11.753 12.8418 11.7531 12.8419C11.7532 12.8419 11.7533 12.842 11.7533 12.842C11.7534 12.8421 11.7535 12.8422 11.2382 13.423ZM13.3087 15.2347C14.0015 15.2347 14.6839 14.8616 15.1012 14.5947C15.3299 14.4484 15.5249 14.3034 15.6625 14.1952C15.7317 14.1408 15.7875 14.0949 15.8269 14.0618C15.8467 14.0452 15.8624 14.0317 15.8738 14.0218C15.8795 14.0169 15.8841 14.0129 15.8875 14.0099C15.8893 14.0084 15.8907 14.0071 15.8919 14.0061C15.8925 14.0056 15.893 14.0051 15.8934 14.0047C15.8936 14.0045 15.8938 14.0044 15.894 14.0042C15.8941 14.0041 15.8942 14.004 15.8943 14.004C15.8944 14.0039 15.8945 14.0038 15.3792 13.423C14.8638 12.8422 14.8639 12.8421 14.864 12.842C14.8641 12.842 14.8642 12.8419 14.8642 12.8419C14.8643 12.8418 14.8644 12.8417 14.8645 12.8416C14.8647 12.8415 14.8647 12.8414 14.8648 12.8414C14.8648 12.8414 14.8646 12.8416 14.8641 12.842C14.863 12.8429 14.861 12.8447 14.8579 12.8474C14.8517 12.8527 14.8415 12.8615 14.8276 12.8732C14.7997 12.8966 14.7573 12.9316 14.703 12.9743C14.5936 13.0602 14.4404 13.174 14.2645 13.2865C13.8725 13.5373 13.5196 13.6818 13.3087 13.6818V15.2347Z" fill="#8F00FF"/>
</svg>
