<svg width="48" height="50" viewBox="0 0 48 50" fill="none" xmlns="http://www.w3.org/2000/svg">
<g clip-path="url(#clip0_225_6559)">
<path d="M23.25 31C23.25 31.4142 23.5858 31.75 24 31.75C24.4142 31.75 24.75 31.4142 24.75 31L23.25 31ZM24 19L24.5303 18.4697C24.2374 18.1768 23.7626 18.1768 23.4697 18.4697L24 19ZM18.2197 23.7197C17.9268 24.0126 17.9268 24.4874 18.2197 24.7803C18.5126 25.0732 18.9874 25.0732 19.2803 24.7803L18.2197 23.7197ZM28.7197 24.7803C29.0126 25.0732 29.4874 25.0732 29.7803 24.7803C30.0732 24.4874 30.0732 24.0126 29.7803 23.7197L28.7197 24.7803ZM24.75 31L24.75 19L23.25 19L23.25 31L24.75 31ZM19.2803 24.7803L24.5303 19.5303L23.4697 18.4697L18.2197 23.7197L19.2803 24.7803ZM23.4697 19.5303L28.7197 24.7803L29.7803 23.7197L24.5303 18.4697L23.4697 19.5303Z" fill="#00FFFF"/>
</g>
<path d="M0 0V-1.5H-1.5V0H0ZM48 0H49.5V-1.5H48V0ZM48 50V51.5H49.5V50H48ZM0 50H-1.5V51.5H0V50ZM0 1.5H48V-1.5H0V1.5ZM46.5 0V50H49.5V0H46.5ZM48 48.5H0V51.5H48V48.5ZM1.5 50V0H-1.5V50H1.5Z" fill="#00FFFF"/>
<defs>
<clipPath id="clip0_225_6559">
<rect width="14" height="12" fill="white" transform="translate(18 32) rotate(-90)"/>
</clipPath>
</defs>
</svg>
