<svg width="34" height="34" viewBox="0 0 34 34" fill="none" xmlns="http://www.w3.org/2000/svg">
<path d="M17.9993 16.9663L22.9565 12.0091C23.0679 11.879 23.1261 11.7117 23.1195 11.5406C23.1129 11.3694 23.0419 11.2071 22.9208 11.086C22.7997 10.9649 22.6374 10.8939 22.4663 10.8873C22.2951 10.8807 22.1278 10.9389 21.9977 11.0503L17.0405 16.0075L12.0833 11.0435C11.9532 10.9321 11.7859 10.8739 11.6147 10.8805C11.4436 10.8871 11.2813 10.9581 11.1602 11.0792C11.039 11.2003 10.9681 11.3626 10.9615 11.5338C10.9549 11.7049 11.0131 11.8722 11.1245 12.0023L16.0817 16.9663L11.1177 21.9235C11.0465 21.9845 10.9887 22.0595 10.9479 22.1439C10.9071 22.2282 10.8841 22.3201 10.8805 22.4138C10.8769 22.5074 10.8927 22.6008 10.9269 22.6881C10.961 22.7753 11.0129 22.8546 11.0792 22.9208C11.1454 22.9871 11.2247 23.039 11.312 23.0731C11.3992 23.1073 11.4926 23.1231 11.5863 23.1195C11.6799 23.1159 11.7718 23.0929 11.8562 23.0521C11.9405 23.0113 12.0155 22.9535 12.0765 22.8823L17.0405 17.9251L21.9977 22.8823C22.1278 22.9937 22.2951 23.0519 22.4663 23.0453C22.6374 23.0387 22.7997 22.9678 22.9208 22.8467C23.0419 22.7256 23.1129 22.5632 23.1195 22.3921C23.1261 22.2209 23.0679 22.0536 22.9565 21.9235L17.9993 16.9663Z" fill="white"/>
<path d="M0 0V-2H-2V0H0ZM34 0H36V-2H34V0ZM34 34V36H36V34H34ZM0 34H-2V36H0V34ZM0 2H34V-2H0V2ZM32 0V34H36V0H32ZM34 32H0V36H34V32ZM2 34V0H-2V34H2Z" fill="white"/>
</svg>
