<svg width="202" height="38" viewBox="0 0 202 38" fill="none" xmlns="http://www.w3.org/2000/svg">
<path d="M3.42392 3.96995V34.2808H7.64825V37.5H0V0.750732H7.64825V3.96995H3.42392Z" fill="white"/>
<path d="M130.331 0.5V37.2493H122.683V34.03H126.908V3.71922H122.683V0.5H130.331Z" fill="white"/>
<path d="M154.254 7.06363C156.478 7.06363 157.99 8.77776 157.634 10.8682L154.744 26.2953C154.343 28.3857 152.209 30.0999 149.986 30.0999H145.317L149.63 7.06363H154.254ZM154.21 7.39809H149.852L145.628 29.8072H149.986C152.031 29.8072 153.988 28.2185 154.343 26.3371L157.234 10.91C157.589 8.94499 156.211 7.39809 154.21 7.39809ZM153.81 9.27946C154.744 9.27946 155.366 9.99019 155.233 10.91L152.342 26.3371C152.165 27.2151 151.275 27.9676 150.297 27.9676H147.94L151.453 9.32126H153.81V9.27946ZM154.877 10.91C155.01 10.1992 154.477 9.57211 153.721 9.57211H151.675L148.296 27.5914H150.341C151.097 27.5914 151.853 27.0061 151.987 26.2535L154.877 10.91Z" fill="white"/>
<path d="M171.73 10.9099L171.196 13.6692H168.528L169.062 10.9099C169.195 10.1991 168.662 9.57199 167.906 9.57199H167.283C166.527 9.57199 165.771 10.1573 165.638 10.9099L164.838 15.2997C164.749 15.7178 164.926 16.1359 165.238 16.3449L168.528 18.8952C169.462 19.6059 169.907 20.7765 169.64 21.989L168.84 26.3788C168.439 28.4692 166.305 30.1833 164.082 30.1833H163.459C161.236 30.1833 159.724 28.4692 160.08 26.3788L160.613 23.6195H163.281L162.748 26.3788C162.614 27.0896 163.148 27.7167 163.904 27.7167H164.526C165.282 27.7167 166.038 27.1314 166.172 26.3788L166.972 21.989C167.061 21.5709 166.883 21.1528 166.572 20.9438L163.281 18.3935C162.347 17.6828 161.903 16.5121 162.17 15.2997L162.97 10.9099C163.37 8.81945 165.505 7.10532 167.728 7.10532H168.35C170.618 7.10532 172.13 8.81945 171.73 10.9099ZM168.35 7.39798H167.728C165.682 7.39798 163.726 8.98668 163.37 10.868L162.57 15.2579C162.347 16.3867 162.748 17.4319 163.592 18.1008L166.883 20.6511C167.283 20.9438 167.461 21.4455 167.328 21.989L166.527 26.3788C166.349 27.2568 165.46 28.0093 164.482 28.0093H163.859C162.925 28.0093 162.303 27.2986 162.436 26.3788L162.881 23.954H160.88L160.435 26.3788C160.08 28.302 161.458 29.8489 163.459 29.8489H164.082C166.127 29.8489 168.084 28.2602 168.439 26.3788L169.24 21.989C169.462 20.8602 169.062 19.815 168.217 19.146L164.926 16.5957C164.526 16.3031 164.348 15.8014 164.482 15.2579L165.282 10.868C165.46 9.99007 166.349 9.23753 167.328 9.23753H167.95C168.884 9.23753 169.507 9.94827 169.373 10.868L168.928 13.2929H170.929L171.374 10.868C171.73 8.98668 170.396 7.39798 168.35 7.39798Z" fill="white"/>
<path d="M185.381 10.9099L184.847 13.6692H182.179L182.713 10.9099C182.846 10.1991 182.313 9.572 181.557 9.572H180.934C180.178 9.572 179.423 10.1573 179.289 10.9099L176.399 26.337C176.265 27.0478 176.799 27.6749 177.555 27.6749H178.178C178.933 27.6749 179.689 27.0896 179.823 26.337L180.623 22.0726H178.578L179.022 19.5641H183.736L182.491 26.337C182.091 28.4274 179.956 30.1416 177.733 30.1416H177.11C174.887 30.1416 173.375 28.4274 173.731 26.337L176.621 10.9099C177.021 8.81945 179.156 7.10532 181.379 7.10532H182.002C184.269 7.10532 185.781 8.81945 185.381 10.9099ZM184.981 10.868C185.337 8.94488 183.958 7.39798 181.957 7.39798H181.335C179.289 7.39798 177.333 8.98668 176.977 10.868L174.087 26.2952C173.731 28.2184 175.109 29.7653 177.11 29.7653H177.733C179.778 29.7653 181.735 28.1766 182.091 26.2952L183.336 19.8568H179.334L178.978 21.7381H181.023L180.134 26.337C179.956 27.215 179.067 27.9675 178.089 27.9675H177.466C176.532 27.9675 175.91 27.2568 176.043 26.337L178.933 10.9099C179.111 10.0319 180.001 9.27934 180.979 9.27934H181.601C182.535 9.27934 183.158 9.99008 183.024 10.9099L182.58 13.3347H184.581L184.981 10.868Z" fill="white"/>
<path d="M201.033 7.10532L196.72 30.1416H194.097L192.184 15.676L189.472 30.1416H186.804L191.117 7.10532H193.741L195.608 21.5709L198.321 7.10532H201.033ZM200.633 7.39798H198.632L195.564 23.7449L193.43 7.39798H191.384L187.204 29.8071H189.205L192.273 13.4601L194.408 29.8071H196.453L200.633 7.39798Z" fill="white"/>
<path d="M26.6355 5.76793C27.258 5.76793 27.7916 5.89335 28.3252 6.10239C28.8588 6.31143 29.3479 6.60409 29.7481 6.98036C30.1483 7.35663 30.4596 7.77471 30.6819 8.27641C30.9043 8.77811 31.0377 9.32161 31.0377 9.90692V27.5081C31.0377 28.0934 30.9043 28.5951 30.6819 29.0968C30.4596 29.5985 30.1483 30.0584 29.7481 30.3929C29.3479 30.7691 28.9033 31.0618 28.3252 31.2708C27.7916 31.4799 27.2135 31.6053 26.6355 31.6053H21.5218V5.68431L26.6355 5.76793ZM28.4141 9.90692C28.4141 9.44703 28.2363 9.02896 27.8805 8.7363C27.5248 8.40183 27.1246 8.2346 26.6355 8.2346H24.1453V29.1804H26.6355C27.1246 29.1804 27.5693 29.0132 27.8805 28.6787C28.2363 28.3443 28.4141 27.968 28.4141 27.5081V9.90692Z" fill="white"/>
<path d="M34.3727 31.6891L36.7294 28.1773L39.0861 31.6891H34.3727Z" fill="white"/>
<path d="M46.2008 5.68431H51.937V27.4663C51.937 28.0516 51.8036 28.5533 51.5812 29.0968C51.3589 29.5985 51.0476 30.0584 50.6474 30.3929C50.2472 30.7691 49.8026 31.0618 49.2245 31.2708C48.6464 31.4799 48.1128 31.6053 47.5348 31.6053H46.8233C46.2008 31.6053 45.6672 31.4799 45.0891 31.2708C44.5555 31.0618 44.0664 30.7691 43.7106 30.3929C43.3104 30.0166 42.9992 29.5985 42.7768 29.0968C42.5545 28.5951 42.4211 28.0516 42.4211 27.4663V24.4979H45.0446V27.4663C45.0446 27.9262 45.2225 28.3443 45.5338 28.6369C45.8895 28.9714 46.2897 29.0968 46.7788 29.0968H47.4903C47.9794 29.0968 48.4241 28.9296 48.7354 28.5951C49.0911 28.2607 49.269 27.8844 49.269 27.4245V8.15099H46.2008V5.68431Z" fill="white"/>
<path d="M62.7423 5.72601L67.5447 31.647H64.9212L63.9874 26.5046H58.6959L57.7621 31.647H55.1385L59.9409 5.72601H62.7423ZM63.4538 23.9961L61.2749 12.4153L59.1405 23.9961H63.4538Z" fill="white"/>
<path d="M77.772 6.06047C78.3056 6.26951 78.7947 6.56217 79.1949 6.93844C79.5951 7.31471 79.9064 7.73279 80.1287 8.23449C80.3511 8.73618 80.4845 9.27969 80.4845 9.865V12.8334H77.8165V9.865C77.8165 9.40511 77.6386 8.98703 77.2829 8.69438C76.9271 8.35991 76.5269 8.23449 76.0378 8.23449H75.3263C74.8372 8.23449 74.3925 8.40172 74.0813 8.69438C73.7255 9.02884 73.5921 9.40511 73.5921 9.865V14.8402C73.5921 15.4255 73.8589 15.8854 74.3481 16.2198L78.6613 19.1046C79.2839 19.5227 79.7285 19.9825 80.0398 20.5679C80.3511 21.1532 80.5289 21.7803 80.5289 22.4492V27.4662C80.5289 28.0515 80.3955 28.5532 80.1732 29.0967C79.9509 29.5984 79.6396 30.0583 79.2394 30.3927C78.8392 30.769 78.3945 31.0617 77.8609 31.2707C77.3273 31.4798 76.7493 31.6052 76.1267 31.6052H75.4153C74.7927 31.6052 74.2591 31.4798 73.6811 31.2707C73.1475 31.0617 72.6583 30.769 72.3026 30.3927C71.9024 30.0165 71.5912 29.5984 71.3688 29.0967C71.1465 28.595 71.0131 28.0515 71.0131 27.4662V24.4978H73.6366V27.4662C73.6366 27.9261 73.8145 28.3442 74.1702 28.6368C74.5259 28.9713 74.9261 29.0967 75.4153 29.0967H76.1267C76.6159 29.0967 77.0605 28.9295 77.3718 28.6368C77.7275 28.3023 77.9054 27.9261 77.9054 27.4662V22.491C77.9054 21.9057 77.6386 21.4458 77.1495 21.1114L72.8362 18.2266C72.2137 17.8503 71.769 17.3486 71.4577 16.7633C71.1465 16.178 70.9686 15.5509 70.9686 14.882V9.865C70.9686 9.27969 71.102 8.77799 71.3243 8.23449C71.5467 7.73279 71.858 7.2729 72.2582 6.93844C72.6583 6.56217 73.103 6.26951 73.6366 6.06047C74.1702 5.85143 74.7483 5.72601 75.3708 5.72601H76.0823C76.6603 5.72601 77.2384 5.80962 77.772 6.06047Z" fill="white"/>
<path d="M106.186 5.72601H108.81V31.647H106.186L100.583 14.0458V31.647H97.9598V5.72601H100.583L106.186 23.3272V5.72601Z" fill="white"/>
<path d="M93.6021 8.23449C93.3798 7.73279 93.0685 7.2729 92.6683 6.93844C92.2681 6.56217 91.8234 6.26951 91.2454 6.06047C90.7118 5.85143 90.1337 5.72601 89.5557 5.72601H88.8442C88.2217 5.72601 87.6881 5.85143 87.11 6.06047C86.5319 6.26951 86.0873 6.56217 85.7315 6.93844C85.3313 7.31471 85.0201 7.73279 84.7977 8.23449C84.5754 8.73618 84.442 9.27969 84.442 9.865V27.4662C84.442 28.0515 84.5754 28.5532 84.7977 29.0967C85.0201 29.5984 85.3313 30.0583 85.7315 30.3927C86.1317 30.769 86.5764 31.0617 87.11 31.2707C87.6436 31.4798 88.2217 31.6052 88.8442 31.6052H89.5557C90.1782 31.6052 90.7118 31.4798 91.2454 31.2707C91.779 31.0617 92.2681 30.769 92.6683 30.3927C93.0685 30.0165 93.3798 29.5984 93.6021 29.0967C93.8244 28.595 93.9578 28.0515 93.9578 27.4662V9.865C93.9578 9.27969 93.8689 8.77799 93.6021 8.23449ZM88.8442 8.19268H89.5557C90.0448 8.19268 90.4894 8.35991 90.8007 8.65257C91.1564 8.98703 91.3343 9.3633 91.3343 9.82319V21.1532L87.4213 8.86161C87.4657 8.77799 87.5102 8.69438 87.5991 8.65257C87.9104 8.35991 88.3551 8.19268 88.8442 8.19268ZM89.5557 29.1385H88.8442C88.3551 29.1385 87.9104 28.9713 87.5991 28.6786C87.2434 28.3442 87.11 27.9679 87.11 27.508V16.1362L91.023 28.4278C90.9786 28.5114 90.9341 28.595 90.8452 28.6368C90.4895 28.9713 90.0448 29.1385 89.5557 29.1385Z" fill="white"/>
</svg>
