<svg width="28" height="28" viewBox="0 0 28 28" fill="none" xmlns="http://www.w3.org/2000/svg">
<path d="M14 0.453126C11.6377 0.453511 9.31666 1.07159 7.26705 2.24604C5.21745 3.42048 3.51057 5.11047 2.3158 7.14829C1.12103 9.18612 0.479893 11.5009 0.456015 13.8631C0.432136 16.2252 1.02634 18.5525 2.17968 20.6141L1.01093 24.6914C0.915488 25.0105 0.908163 25.3495 0.989727 25.6724C1.07129 25.9954 1.23871 26.2902 1.47423 26.5258C1.70975 26.7613 2.00461 26.9287 2.32754 27.0103C2.65048 27.0918 2.98947 27.0845 3.30858 26.9891L7.38593 25.8203C9.19258 26.8318 11.2071 27.4158 13.2746 27.5272C15.3421 27.6387 17.4077 27.2748 19.3126 26.4634C21.2176 25.652 22.9112 24.4147 24.2633 22.8466C25.6155 21.2786 26.5902 19.4214 27.1126 17.4179C27.635 15.4143 27.6911 13.3176 27.2768 11.289C26.8624 9.26033 25.9885 7.35365 24.7223 5.71543C23.4561 4.0772 21.8312 2.75103 19.9724 1.83879C18.1137 0.926549 16.0705 0.452523 14 0.453126ZM14 25.9531C11.8546 25.9525 9.74893 25.3745 7.9039 24.2797C7.77707 24.212 7.63592 24.1756 7.49218 24.1734C7.42031 24.1691 7.34827 24.1781 7.27968 24.2L2.8703 25.4617C2.82415 25.4759 2.775 25.4773 2.72813 25.4657C2.68126 25.454 2.63845 25.4298 2.60431 25.3957C2.57016 25.3615 2.54597 25.3187 2.53433 25.2719C2.5227 25.225 2.52406 25.1758 2.53827 25.1297L3.79999 20.7203C3.82978 20.6163 3.83807 20.5073 3.82437 20.4C3.81067 20.2927 3.77526 20.1893 3.7203 20.0961C2.37527 17.8275 1.81826 15.1779 2.13603 12.5598C2.4538 9.94167 3.62851 7.50217 5.47718 5.62126C7.32585 3.74034 9.74467 2.52363 12.3569 2.16064C14.9691 1.79765 17.628 2.30876 19.9195 3.61436C22.2109 4.91996 24.0063 6.94674 25.0258 9.379C26.0454 11.8113 26.232 14.5124 25.5564 17.0618C24.8809 19.6111 23.3812 21.8654 21.291 23.4736C19.2007 25.0818 16.6373 25.9536 14 25.9531ZM20.8398 16.2313L18.1172 14.6773C17.8306 14.5157 17.5063 14.433 17.1773 14.4376C16.8483 14.4423 16.5264 14.5342 16.2445 14.7039L14.5445 15.7266C13.5783 15.2124 12.7876 14.4217 12.2734 13.4555L13.2961 11.7555C13.4658 11.4736 13.5577 11.1517 13.5624 10.8227C13.567 10.4937 13.4843 10.1694 13.3226 9.88281L11.7687 7.16016C11.6179 6.89882 11.4011 6.68159 11.1401 6.53012C10.8791 6.37865 10.583 6.29823 10.2812 6.29688C9.08592 6.29687 7.93936 6.7708 7.0929 7.61477C6.24643 8.45875 5.76913 9.6039 5.76561 10.7992C5.76387 12.3003 6.05802 13.787 6.63124 15.1743C7.20446 16.5616 8.04551 17.8223 9.10631 18.8843C10.1671 19.9463 11.4268 20.7888 12.8135 21.3637C14.2001 21.9385 15.6864 22.2344 17.1875 22.2344H17.2008C18.3961 22.2309 19.5412 21.7536 20.3852 20.9071C21.2292 20.0606 21.7031 18.9141 21.7031 17.7188C21.7018 17.417 21.6213 17.1209 21.4699 16.8599C21.3184 16.5989 21.1012 16.3821 20.8398 16.2313ZM17.2008 20.6406H17.1875C14.5797 20.6371 12.0799 19.5987 10.2371 17.7535C8.3944 15.9082 7.35936 13.407 7.35936 10.7992C7.36288 10.0266 7.67227 9.28681 8.21984 8.74172C8.76742 8.19663 9.50861 7.89062 10.2812 7.89063C10.3222 7.89398 10.3602 7.91301 10.3875 7.94375L11.9414 10.6664C11.9627 10.7079 11.9727 10.7544 11.9704 10.801C11.9681 10.8476 11.9535 10.8928 11.9281 10.932L10.693 13.0172C10.623 13.1245 10.5815 13.2478 10.5722 13.3756C10.5629 13.5033 10.5862 13.6313 10.6398 13.7477C11.3659 15.3502 12.6498 16.6341 14.2523 17.3602C14.3686 17.4138 14.4967 17.4371 14.6244 17.4278C14.7522 17.4185 14.8755 17.377 14.9828 17.307L17.068 16.0719C17.1072 16.0465 17.1524 16.0319 17.199 16.0296C17.2456 16.0273 17.292 16.0373 17.3336 16.0586L20.0562 17.6125C20.087 17.6397 20.106 17.6778 20.1094 17.7188C20.1094 18.4914 19.8034 19.2326 19.2583 19.7801C18.7132 20.3277 17.9734 20.6371 17.2008 20.6406Z" fill="#8F00FF"/>
</svg>
