<svg width="52" height="50" viewBox="0 0 52 50" fill="none" xmlns="http://www.w3.org/2000/svg">
<path d="M11.3922 22.1691C10.759 22.8023 10.759 23.8287 11.3922 24.4619C12.0253 25.095 13.0518 25.095 13.6849 24.4619L11.3922 22.1691ZM20.6446 15.2095L21.791 14.0631C21.1578 13.43 20.1313 13.43 19.4982 14.0631L20.6446 15.2095ZM28.7506 23.3155L27.6043 24.4619C28.2374 25.095 29.2639 25.095 29.897 24.4619L28.7506 23.3155ZM40.7051 13.6538C41.3382 13.0207 41.3382 11.9942 40.7051 11.3611C40.0719 10.7279 39.0455 10.7279 38.4123 11.3611L40.7051 13.6538ZM15.2406 47.6336L14.0942 46.4873C13.6305 46.9509 13.4918 47.6483 13.7427 48.2541C13.9937 48.8599 14.5848 49.2549 15.2406 49.2549V47.6336ZM26.0486 36.8256L27.195 35.6792C26.5619 35.0461 25.5354 35.0461 24.9022 35.6792L26.0486 36.8256ZM36.8567 47.6336V49.2549C37.5124 49.2549 38.1036 48.8599 38.3545 48.2541C38.6054 47.6483 38.4667 46.9509 38.0031 46.4873L36.8567 47.6336ZM1.73047 0.0781615C0.835099 0.0781615 0.109259 0.804002 0.109259 1.69937C0.109259 2.59474 0.835099 3.32058 1.73047 3.32058V0.0781615ZM50.3668 3.32058C51.2621 3.32058 51.988 2.59474 51.988 1.69937C51.988 0.804002 51.2621 0.0781615 50.3668 0.0781615V3.32058ZM4.43249 1.69937V0.0781615C3.53712 0.0781615 2.81128 0.804002 2.81128 1.69937L4.43249 1.69937ZM47.6647 1.69937H49.286C49.286 0.804002 48.5601 0.0781615 47.6647 0.0781615V1.69937ZM13.6849 24.4619L21.791 16.3558L19.4982 14.0631L11.3922 22.1691L13.6849 24.4619ZM19.4982 16.3558L27.6043 24.4619L29.897 22.1691L21.791 14.0631L19.4982 16.3558ZM29.897 24.4619L40.7051 13.6538L38.4123 11.3611L27.6043 22.1691L29.897 24.4619ZM16.3869 48.78L27.195 37.972L24.9022 35.6792L14.0942 46.4873L16.3869 48.78ZM24.9022 37.972L35.7103 48.78L38.0031 46.4873L27.195 35.6792L24.9022 37.972ZM36.8567 46.0124H15.2406V49.2549H36.8567V46.0124ZM1.73047 3.32058H50.3668V0.0781615H1.73047V3.32058ZM4.43249 3.32058H47.6647V0.0781615H4.43249V3.32058ZM46.0435 1.69937V34.1236H49.286V1.69937H46.0435ZM46.0435 34.1236C46.0435 34.4102 45.9297 34.6851 45.727 34.8878L48.0197 37.1805C48.8305 36.3698 49.286 35.2702 49.286 34.1236H46.0435ZM45.727 34.8878C45.5243 35.0905 45.2494 35.2044 44.9627 35.2044V38.4468C46.1093 38.4468 47.209 37.9913 48.0197 37.1805L45.727 34.8878ZM44.9627 35.2044H7.1345V38.4468H44.9627V35.2044ZM7.1345 35.2044C6.84785 35.2044 6.57295 35.0905 6.37026 34.8878L4.07752 37.1805C4.88828 37.9913 5.98791 38.4468 7.1345 38.4468V35.2044ZM6.37026 34.8878C6.16757 34.6851 6.0537 34.4102 6.0537 34.1236H2.81128C2.81128 35.2702 3.26676 36.3698 4.07752 37.1805L6.37026 34.8878ZM6.0537 34.1236V1.69937H2.81128V34.1236H6.0537Z" fill="#00FFFF"/>
</svg>
