<svg width="62" height="58" viewBox="0 0 62 58" fill="none" xmlns="http://www.w3.org/2000/svg">
<path opacity="0.1" d="M14.2083 26.0909C13.4632 26.8361 13.4632 28.0442 14.2083 28.7893C14.9534 29.5344 16.1615 29.5344 16.9066 28.7893L14.2083 26.0909ZM25.0975 17.9001L26.4467 16.5509C25.7015 15.8058 24.4935 15.8058 23.7483 16.5509L25.0975 17.9001ZM34.6375 27.4401L33.2884 28.7893C34.0335 29.5344 35.2416 29.5344 35.9867 28.7893L34.6375 27.4401ZM48.7068 16.0692C49.4519 15.3241 49.4519 14.116 48.7068 13.3709C47.9616 12.6258 46.7536 12.6258 46.0084 13.3709L48.7068 16.0692ZM18.7375 56.0602L17.3883 54.7111C16.8426 55.2568 16.6794 56.0774 16.9747 56.7904C17.27 57.5034 17.9658 57.9683 18.7375 57.9683V56.0602ZM31.4575 43.3402L32.8067 41.991C32.0616 41.2459 30.8535 41.2459 30.1084 41.991L31.4575 43.3402ZM44.1776 56.0602V57.9683C44.9493 57.9683 45.645 57.5034 45.9404 56.7904C46.2357 56.0774 46.0724 55.2568 45.5268 54.7111L44.1776 56.0602ZM2.8374 0.0919914C1.78364 0.0919914 0.929394 0.946236 0.929394 2C0.929394 3.05376 1.78364 3.90801 2.8374 3.90801V0.0919914ZM60.0777 3.90801C61.1314 3.90801 61.9857 3.05376 61.9857 2C61.9857 0.946236 61.1314 0.0919914 60.0777 0.0919914V3.90801ZM6.01742 2V0.0919914C4.96365 0.0919914 4.10941 0.946236 4.10941 2L6.01742 2ZM56.8976 2H58.8057C58.8057 0.946236 57.9514 0.0919914 56.8976 0.0919914V2ZM16.9066 28.7893L26.4467 19.2492L23.7483 16.5509L14.2083 26.0909L16.9066 28.7893ZM23.7483 19.2492L33.2884 28.7893L35.9867 26.0909L26.4467 16.5509L23.7483 19.2492ZM35.9867 28.7893L48.7068 16.0692L46.0084 13.3709L33.2884 26.0909L35.9867 28.7893ZM20.0866 57.4094L32.8067 44.6894L30.1084 41.991L17.3883 54.7111L20.0866 57.4094ZM30.1084 44.6894L42.8284 57.4094L45.5268 54.7111L32.8067 41.991L30.1084 44.6894ZM44.1776 54.1522H18.7375V57.9683H44.1776V54.1522ZM2.8374 3.90801H60.0777V0.0919914H2.8374V3.90801ZM6.01742 3.90801H56.8976V0.0919914H6.01742V3.90801ZM54.9896 2V40.1602H58.8057V2H54.9896ZM54.9896 40.1602C54.9896 40.4975 54.8556 40.8211 54.6171 41.0596L57.3154 43.7579C58.2696 42.8038 58.8057 41.5096 58.8057 40.1602H54.9896ZM54.6171 41.0596C54.3785 41.2982 54.055 41.4322 53.7176 41.4322V45.2482C55.0671 45.2482 56.3612 44.7121 57.3154 43.7579L54.6171 41.0596ZM53.7176 41.4322H9.19743V45.2482H53.7176V41.4322ZM9.19743 41.4322C8.86007 41.4322 8.53653 41.2982 8.29799 41.0596L5.59966 43.7579C6.55385 44.7121 7.84801 45.2482 9.19743 45.2482V41.4322ZM8.29799 41.0596C8.05944 40.8211 7.92543 40.4975 7.92543 40.1602H4.10941C4.10941 41.5096 4.64547 42.8038 5.59966 43.7579L8.29799 41.0596ZM7.92543 40.1602V2H4.10941V40.1602H7.92543Z" fill="#8F00FF"/>
</svg>
