<svg width="25" height="23" viewBox="0 0 25 23" fill="none" xmlns="http://www.w3.org/2000/svg">
<path d="M5.46967 10.4697C5.17678 10.7626 5.17678 11.2374 5.46967 11.5303C5.76256 11.8232 6.23744 11.8232 6.53033 11.5303L5.46967 10.4697ZM9.75 7.25L10.2803 6.71967C9.98744 6.42678 9.51256 6.42678 9.21967 6.71967L9.75 7.25ZM13.5 11L12.9697 11.5303C13.2626 11.8232 13.7374 11.8232 14.0303 11.5303L13.5 11ZM19.0303 6.53033C19.3232 6.23744 19.3232 5.76256 19.0303 5.46967C18.7374 5.17678 18.2626 5.17678 17.9697 5.46967L19.0303 6.53033ZM7.25 22.25L6.71967 21.7197C6.50517 21.9342 6.441 22.2568 6.55709 22.537C6.67318 22.8173 6.94665 23 7.25 23V22.25ZM12.25 17.25L12.7803 16.7197C12.4874 16.4268 12.0126 16.4268 11.7197 16.7197L12.25 17.25ZM17.25 22.25V23C17.5533 23 17.8268 22.8173 17.9429 22.537C18.059 22.2568 17.9948 21.9342 17.7803 21.7197L17.25 22.25ZM1 0.25C0.585786 0.25 0.25 0.585786 0.25 1C0.25 1.41421 0.585786 1.75 1 1.75V0.25ZM23.5 1.75C23.9142 1.75 24.25 1.41421 24.25 1C24.25 0.585786 23.9142 0.25 23.5 0.25V1.75ZM2.25 1V0.25C1.83579 0.25 1.5 0.585786 1.5 1L2.25 1ZM22.25 1H23C23 0.585786 22.6642 0.25 22.25 0.25V1ZM6.53033 11.5303L10.2803 7.78033L9.21967 6.71967L5.46967 10.4697L6.53033 11.5303ZM9.21967 7.78033L12.9697 11.5303L14.0303 10.4697L10.2803 6.71967L9.21967 7.78033ZM14.0303 11.5303L19.0303 6.53033L17.9697 5.46967L12.9697 10.4697L14.0303 11.5303ZM7.78033 22.7803L12.7803 17.7803L11.7197 16.7197L6.71967 21.7197L7.78033 22.7803ZM11.7197 17.7803L16.7197 22.7803L17.7803 21.7197L12.7803 16.7197L11.7197 17.7803ZM17.25 21.5H7.25V23H17.25V21.5ZM1 1.75H23.5V0.25H1V1.75ZM2.25 1.75H22.25V0.25H2.25V1.75ZM21.5 1V16H23V1H21.5ZM21.5 16C21.5 16.1326 21.4473 16.2598 21.3536 16.3536L22.4142 17.4142C22.7893 17.0391 23 16.5304 23 16H21.5ZM21.3536 16.3536C21.2598 16.4473 21.1326 16.5 21 16.5V18C21.5304 18 22.0391 17.7893 22.4142 17.4142L21.3536 16.3536ZM21 16.5H3.5V18H21V16.5ZM3.5 16.5C3.36739 16.5 3.24021 16.4473 3.14645 16.3536L2.08579 17.4142C2.46086 17.7893 2.96957 18 3.5 18V16.5ZM3.14645 16.3536C3.05268 16.2598 3 16.1326 3 16H1.5C1.5 16.5304 1.71071 17.0391 2.08579 17.4142L3.14645 16.3536ZM3 16V1H1.5V16H3Z" fill="#8F00FF"/>
</svg>
