<svg width="22" height="21" viewBox="0 0 22 21" fill="none" xmlns="http://www.w3.org/2000/svg">
<path d="M10.5823 1.52316H11.4105C11.4105 1.06576 11.0397 0.694964 10.5823 0.694964V1.52316ZM1.81519 1.52316V0.694964C1.35778 0.694964 0.986986 1.06576 0.986986 1.52316L1.81519 1.52316ZM1.81519 11.6745H0.986986C0.986986 12.1319 1.35778 12.5027 1.81519 12.5027L1.81519 11.6745ZM10.5823 11.6745V12.5027C11.0397 12.5027 11.4105 12.1319 11.4105 11.6745H10.5823ZM20.2722 15.3659H21.1004C21.1004 14.9085 20.7296 14.5377 20.2722 14.5377V15.3659ZM1.81521 15.3659V14.5377C1.35781 14.5377 0.987008 14.9085 0.987008 15.3659H1.81521ZM1.81521 19.5188H0.987008C0.987008 19.9762 1.35781 20.347 1.81521 20.347V19.5188ZM20.2722 19.5188V20.347C20.7296 20.347 21.1004 19.9762 21.1004 19.5188H20.2722ZM20.2722 1.52318H21.1004C21.1004 1.06578 20.7296 0.694978 20.2722 0.694978V1.52318ZM14.2737 1.52318V0.694978C13.8163 0.694978 13.4455 1.06578 13.4455 1.52318H14.2737ZM14.2737 5.21458H13.4455C13.4455 5.67198 13.8163 6.04278 14.2737 6.04278V5.21458ZM20.2722 5.21458V6.04278C20.7296 6.04278 21.1004 5.67198 21.1004 5.21458H20.2722ZM20.2722 7.98315H21.1004C21.1004 7.52575 20.7296 7.15495 20.2722 7.15495V7.98315ZM14.2737 7.98315V7.15495C13.8163 7.15495 13.4455 7.52575 13.4455 7.98315H14.2737ZM14.2737 11.6746H13.4455C13.4455 12.132 13.8163 12.5027 14.2737 12.5027V11.6746ZM20.2722 11.6746V12.5027C20.7296 12.5027 21.1004 12.132 21.1004 11.6746H20.2722ZM10.5823 0.694964H1.81519V2.35136H10.5823V0.694964ZM0.986986 1.52316V11.6745H2.64338V1.52316H0.986986ZM1.81519 12.5027H10.5823V10.8463H1.81519V12.5027ZM11.4105 11.6745V1.52316H9.75407V11.6745H11.4105ZM20.2722 14.5377H1.81521V16.1941H20.2722V14.5377ZM0.987008 15.3659V19.5188H2.64341V15.3659H0.987008ZM1.81521 20.347H20.2722V18.6906H1.81521V20.347ZM21.1004 19.5188V15.3659H19.444V19.5188H21.1004ZM20.2722 0.694978H14.2737V2.35138H20.2722V0.694978ZM13.4455 1.52318V5.21458H15.1019V1.52318H13.4455ZM14.2737 6.04278H20.2722V4.38638H14.2737V6.04278ZM21.1004 5.21458V1.52318H19.444V5.21458H21.1004ZM20.2722 7.15495H14.2737V8.81135H20.2722V7.15495ZM13.4455 7.98315V11.6746H15.1019V7.98315H13.4455ZM14.2737 12.5027H20.2722V10.8464H14.2737V12.5027ZM21.1004 11.6746V7.98315H19.444V11.6746H21.1004Z" fill="#8F00FF"/>
</svg>
