<svg width="21" height="20" viewBox="0 0 21 20" fill="none" xmlns="http://www.w3.org/2000/svg">
<path d="M9.76708 1.02319H10.5953C10.5953 0.565792 10.2245 0.194994 9.76708 0.194994V1.02319ZM1 1.02319V0.194994C0.542598 0.194994 0.171801 0.565792 0.171801 1.02319L1 1.02319ZM1 11.1745H0.171801C0.171801 11.6319 0.542598 12.0027 1 12.0027L1 11.1745ZM9.76708 11.1745V12.0027C10.2245 12.0027 10.5953 11.6319 10.5953 11.1745H9.76708ZM19.457 14.866H20.2852C20.2852 14.4086 19.9144 14.0378 19.457 14.0378V14.866ZM1.00002 14.866V14.0378C0.54262 14.0378 0.171823 14.4086 0.171823 14.866H1.00002ZM1.00002 19.0188H0.171823C0.171823 19.4762 0.54262 19.847 1.00002 19.847V19.0188ZM19.457 19.0188V19.847C19.9144 19.847 20.2852 19.4762 20.2852 19.0188H19.457ZM19.457 1.02321H20.2852C20.2852 0.565806 19.9144 0.195009 19.457 0.195009V1.02321ZM13.4585 1.02321V0.195009C13.0011 0.195009 12.6303 0.565806 12.6303 1.02321H13.4585ZM13.4585 4.71461H12.6303C12.6303 5.17201 13.0011 5.54281 13.4585 5.54281V4.71461ZM19.457 4.71461V5.54281C19.9144 5.54281 20.2852 5.17201 20.2852 4.71461H19.457ZM19.457 7.48318H20.2852C20.2852 7.02578 19.9144 6.65498 19.457 6.65498V7.48318ZM13.4585 7.48318V6.65498C13.0011 6.65498 12.6303 7.02578 12.6303 7.48318H13.4585ZM13.4585 11.1746H12.6303C12.6303 11.632 13.0011 12.0028 13.4585 12.0028V11.1746ZM19.457 11.1746V12.0028C19.9144 12.0028 20.2852 11.632 20.2852 11.1746H19.457ZM9.76708 0.194994H1V1.85139H9.76708V0.194994ZM0.171801 1.02319V11.1745H1.8282V1.02319H0.171801ZM1 12.0027H9.76708V10.3463H1V12.0027ZM10.5953 11.1745V1.02319H8.93888V11.1745H10.5953ZM19.457 14.0378H1.00002V15.6942H19.457V14.0378ZM0.171823 14.866V19.0188H1.82822V14.866H0.171823ZM1.00002 19.847H19.457V18.1906H1.00002V19.847ZM20.2852 19.0188V14.866H18.6288V19.0188H20.2852ZM19.457 0.195009H13.4585V1.85141H19.457V0.195009ZM12.6303 1.02321V4.71461H14.2867V1.02321H12.6303ZM13.4585 5.54281H19.457V3.88641H13.4585V5.54281ZM20.2852 4.71461V1.02321H18.6288V4.71461H20.2852ZM19.457 6.65498H13.4585V8.31138H19.457V6.65498ZM12.6303 7.48318V11.1746H14.2867V7.48318H12.6303ZM13.4585 12.0028H19.457V10.3464H13.4585V12.0028ZM20.2852 11.1746V7.48318H18.6288V11.1746H20.2852Z" fill="#8F00FF"/>
</svg>
