<svg width="53" height="51" viewBox="0 0 53 51" fill="none" xmlns="http://www.w3.org/2000/svg">
<path opacity="0.1" d="M25.4051 3.08803H27.5121C27.5121 1.92439 26.5687 0.98108 25.4051 0.98108V3.08803ZM3.10156 3.08803V0.98108C1.93793 0.98108 0.994615 1.92439 0.994615 3.08803L3.10156 3.08803ZM3.10156 28.9132H0.994615C0.994615 30.0768 1.93793 31.0201 3.10156 31.0201L3.10156 28.9132ZM25.4051 28.9132V31.0201C26.5687 31.0201 27.5121 30.0768 27.5121 28.9132H25.4051ZM50.0565 38.3042H52.1634C52.1634 37.1406 51.2201 36.1972 50.0565 36.1972V38.3042ZM3.10162 38.3042V36.1972C1.93798 36.1972 0.99467 37.1406 0.99467 38.3042H3.10162ZM3.10162 48.869H0.99467C0.99467 50.0327 1.93798 50.976 3.10162 50.976V48.869ZM50.0565 48.869V50.976C51.2201 50.976 52.1634 50.0327 52.1634 48.869H50.0565ZM50.0565 3.08806H52.1634C52.1634 1.92443 51.2201 0.981117 50.0565 0.981117V3.08806ZM34.7962 3.08806V0.981117C33.6325 0.981117 32.6892 1.92443 32.6892 3.08806H34.7962ZM34.7962 12.479H32.6892C32.6892 13.6427 33.6325 14.586 34.7962 14.586V12.479ZM50.0565 12.479V14.586C51.2201 14.586 52.1634 13.6427 52.1634 12.479H50.0565ZM50.0565 19.5223H52.1634C52.1634 18.3587 51.2201 17.4154 50.0565 17.4154V19.5223ZM34.7962 19.5223V17.4154C33.6325 17.4154 32.6892 18.3587 32.6892 19.5223H34.7962ZM34.7962 28.9133H32.6892C32.6892 30.0769 33.6325 31.0202 34.7962 31.0202V28.9133ZM50.0565 28.9133V31.0202C51.2201 31.0202 52.1634 30.0769 52.1634 28.9133H50.0565ZM25.4051 0.98108H3.10156V5.19498H25.4051V0.98108ZM0.994615 3.08803V28.9132H5.20851V3.08803H0.994615ZM3.10156 31.0201H25.4051V26.8062H3.10156V31.0201ZM27.5121 28.9132V3.08803H23.2982V28.9132H27.5121ZM50.0565 36.1972H3.10162V40.4111H50.0565V36.1972ZM0.99467 38.3042V48.869H5.20857V38.3042H0.99467ZM3.10162 50.976H50.0565V46.7621H3.10162V50.976ZM52.1634 48.869V38.3042H47.9495V48.869H52.1634ZM50.0565 0.981117H34.7962V5.19501H50.0565V0.981117ZM32.6892 3.08806V12.479H36.9031V3.08806H32.6892ZM34.7962 14.586H50.0565V10.3721H34.7962V14.586ZM52.1634 12.479V3.08806H47.9495V12.479H52.1634ZM50.0565 17.4154H34.7962V21.6293H50.0565V17.4154ZM32.6892 19.5223V28.9133H36.9031V19.5223H32.6892ZM34.7962 31.0202H50.0565V26.8063H34.7962V31.0202ZM52.1634 28.9133V19.5223H47.9495V28.9133H52.1634Z" fill="#8F00FF"/>
</svg>
