<svg width="45" height="43" viewBox="0 0 45 43" fill="none" xmlns="http://www.w3.org/2000/svg">
<path d="M21.2694 2.0226H23.0596C23.0596 1.03387 22.2581 0.232352 21.2694 0.232352V2.0226ZM2.31836 2.0226V0.232352C1.32963 0.232352 0.528113 1.03387 0.528113 2.0226L2.31836 2.0226ZM2.31836 23.9659H0.528113C0.528113 24.9546 1.32963 25.7561 2.31836 25.7561L2.31836 23.9659ZM21.2694 23.9659V25.7561C22.2581 25.7561 23.0596 24.9546 23.0596 23.9659H21.2694ZM42.2153 31.9453H44.0056C44.0056 30.9566 43.204 30.1551 42.2153 30.1551V31.9453ZM2.31841 31.9453V30.1551C1.32968 30.1551 0.52816 30.9566 0.52816 31.9453H2.31841ZM2.31841 40.9221H0.52816C0.52816 41.9108 1.32968 42.7124 2.31841 42.7124V40.9221ZM42.2153 40.9221V42.7124C43.204 42.7124 44.0056 41.9108 44.0056 40.9221H42.2153ZM42.2153 2.02263H44.0056C44.0056 1.0339 43.2041 0.232384 42.2153 0.232384V2.02263ZM29.2488 2.02263V0.232384C28.2601 0.232384 27.4586 1.0339 27.4586 2.02263H29.2488ZM29.2488 10.002H27.4586C27.4586 10.9907 28.2601 11.7923 29.2488 11.7923V10.002ZM42.2153 10.002V11.7923C43.2041 11.7923 44.0056 10.9907 44.0056 10.002H42.2153ZM42.2153 15.9866H44.0056C44.0056 14.9979 43.2041 14.1963 42.2153 14.1963V15.9866ZM29.2488 15.9866V14.1963C28.2601 14.1963 27.4586 14.9979 27.4586 15.9866H29.2488ZM29.2488 23.966H27.4586C27.4586 24.9547 28.2601 25.7562 29.2488 25.7562V23.966ZM42.2153 23.966V25.7562C43.2041 25.7562 44.0056 24.9547 44.0056 23.966H42.2153ZM21.2694 0.232352H2.31836V3.81284H21.2694V0.232352ZM0.528113 2.0226V23.9659H4.10861V2.0226H0.528113ZM2.31836 25.7561H21.2694V22.1757H2.31836V25.7561ZM23.0596 23.9659V2.0226H19.4791V23.9659H23.0596ZM42.2153 30.1551H2.31841V33.7356H42.2153V30.1551ZM0.52816 31.9453V40.9221H4.10865V31.9453H0.52816ZM2.31841 42.7124H42.2153V39.1319H2.31841V42.7124ZM44.0056 40.9221V31.9453H40.4251V40.9221H44.0056ZM42.2153 0.232384H29.2488V3.81288H42.2153V0.232384ZM27.4586 2.02263V10.002H31.0391V2.02263H27.4586ZM29.2488 11.7923H42.2153V8.21177H29.2488V11.7923ZM44.0056 10.002V2.02263H40.4251V10.002H44.0056ZM42.2153 14.1963H29.2488V17.7768H42.2153V14.1963ZM27.4586 15.9866V23.966H31.0391V15.9866H27.4586ZM29.2488 25.7562H42.2153V22.1757H29.2488V25.7562ZM44.0056 23.966V15.9866H40.4251V23.966H44.0056Z" fill="#00FFFF"/>
</svg>
